<svg width="30" height="30" viewBox="0 0 30 30" fill="none" xmlns="http://www.w3.org/2000/svg">
<g clip-path="url(#clip0_148_1273)">
<path opacity="0.965" fill-rule="evenodd" clip-rule="evenodd" d="M15.5566 -0.0292969C17.3535 -0.0292969 19.1504 -0.0292969 20.9473 -0.0292969C21.2484 0.106611 21.4339 0.340986 21.5039 0.673828C21.5867 3.27366 22.8074 5.09984 25.166 6.15234C25.9038 6.41959 26.6655 6.55629 27.4512 6.5625C27.7734 6.65039 27.9785 6.85547 28.0664 7.17773C28.1055 8.93555 28.1055 10.6934 28.0664 12.4512C27.959 12.7148 27.7734 12.9004 27.5098 13.0078C25.4193 13.0955 23.4467 12.6561 21.5918 11.6895C21.543 14.6971 21.5137 17.7049 21.5039 20.7129C21.1134 24.8449 19.0138 27.7257 15.2051 29.3555C14.3983 29.6473 13.578 29.8524 12.7441 29.9707C12.0215 29.9707 11.2988 29.9707 10.5762 29.9707C6.10037 29.2355 3.25859 26.6769 2.05078 22.2949C1.28929 17.7945 2.78343 14.2692 6.5332 11.7188C8.17406 10.7357 9.95144 10.2669 11.8652 10.3125C12.2013 10.3946 12.4259 10.5997 12.5391 10.9277C12.5781 12.6855 12.5781 14.4434 12.5391 16.2012C12.457 16.4005 12.3301 16.5666 12.1582 16.6992C10.8925 16.7122 9.84749 17.1908 9.02343 18.1348C8.17066 19.3973 8.13158 20.6863 8.90624 22.002C9.97411 23.3701 11.3315 23.7705 12.9785 23.2031C14.0465 22.7013 14.7008 21.8712 14.9414 20.7129C14.9609 14.0527 14.9805 7.3926 15 0.732422C15.0729 0.389225 15.2585 0.135319 15.5566 -0.0292969ZM16.7871 1.72852C17.7832 1.72852 18.7793 1.72852 19.7754 1.72852C20.1313 4.30702 21.4399 6.23086 23.7012 7.5C24.5116 7.92311 25.3709 8.18678 26.2793 8.29102C26.2891 9.26777 26.2793 10.2444 26.25 11.2207C24.9949 11.0753 23.7937 10.7335 22.6465 10.1953C22.0295 9.85775 21.424 9.50619 20.8301 9.14062C20.3926 9.07143 20.0508 9.21791 19.8047 9.58008C19.7272 13.2486 19.6881 16.9205 19.6875 20.5957C19.4153 23.554 17.9993 25.7708 15.4394 27.2461C12.4707 28.6614 9.6191 28.4466 6.88476 26.6016C4.13844 24.359 3.1521 21.4977 3.92578 18.0176C5.00839 14.678 7.28378 12.7248 10.7519 12.1582C10.7519 13.1348 10.7519 14.1113 10.7519 15.0879C8.38669 15.627 6.99023 17.0919 6.56249 19.4824C6.39339 22.0656 7.47738 23.8918 9.81445 24.9609C12.1714 25.7025 14.1538 25.1459 15.7617 23.291C16.2991 22.5775 16.6312 21.7768 16.7578 20.8887C16.7871 14.502 16.7969 8.11529 16.7871 1.72852Z" fill="white"/>
</g>
<defs>
<clipPath id="clip0_148_1273">
<rect width="30" height="30" fill="white"/>
</clipPath>
</defs>
</svg>
