<svg width="30" height="30" viewBox="0 0 30 30" fill="none" xmlns="http://www.w3.org/2000/svg">
<g clip-path="url(#clip0_148_1243)">
<path opacity="0.995" fill-rule="evenodd" clip-rule="evenodd" d="M29.9707 18.0181C29.9707 18.4869 29.9707 18.9556 29.9707 19.4244C29.5787 21.3501 28.4459 22.6294 26.5723 23.2623C26.3796 23.3139 26.1842 23.353 25.9863 23.3795C22.5098 23.4185 19.0332 23.4185 15.5567 23.3795C15.293 23.2721 15.1074 23.0865 15 22.8228C14.9609 17.5885 14.9609 12.354 15 7.11969C15.1074 6.85602 15.293 6.67045 15.5567 6.56305C19.3253 6.52766 22.0304 8.19758 23.6719 11.5728C24.0039 12.3642 24.2286 13.1845 24.3457 14.0338C26.7812 13.7718 28.5488 14.7288 29.6485 16.9048C29.7848 17.2756 29.8922 17.6468 29.9707 18.0181Z" fill="white"/>
<path opacity="0.993" fill-rule="evenodd" clip-rule="evenodd" d="M11.8067 8.40814C12.3844 8.28217 12.8043 8.47746 13.0664 8.99408C13.1055 13.6035 13.1055 18.2128 13.0664 22.8222C12.9019 23.2316 12.5993 23.4269 12.1582 23.4081C11.7172 23.4269 11.4145 23.2316 11.25 22.8222C11.2109 18.2128 11.2109 13.6035 11.25 8.99408C11.3685 8.72924 11.5541 8.53394 11.8067 8.40814Z" fill="white"/>
<path opacity="0.991" fill-rule="evenodd" clip-rule="evenodd" d="M4.30664 12.1581C4.88438 12.0322 5.3043 12.2275 5.56641 12.7441C5.60547 16.1034 5.60547 19.4628 5.56641 22.8222C5.40195 23.2316 5.09921 23.4269 4.6582 23.4081C4.2172 23.4269 3.91446 23.2316 3.75 22.8222C3.71094 19.4628 3.71094 16.1034 3.75 12.7441C3.8685 12.4792 4.05404 12.2839 4.30664 12.1581Z" fill="white"/>
<path opacity="0.991" fill-rule="evenodd" clip-rule="evenodd" d="M8.05666 12.1581C8.63439 12.0322 9.05433 12.2275 9.31642 12.7441C9.3555 16.1034 9.3555 19.4628 9.31642 22.8222C9.15195 23.2316 8.84925 23.4269 8.40822 23.4081C7.96718 23.4269 7.66449 23.2316 7.50001 22.8222C7.46093 19.4628 7.46093 16.1034 7.50001 12.7441C7.61849 12.4792 7.80406 12.2839 8.05666 12.1581Z" fill="white"/>
<path opacity="0.986" fill-rule="evenodd" clip-rule="evenodd" d="M-0.0292969 21.8848C-0.0292969 19.7755 -0.0292969 17.6661 -0.0292969 15.5567C0.246577 15.0383 0.676266 14.8528 1.25977 15.0001C1.52344 15.1075 1.70899 15.293 1.81641 15.5567C1.85547 17.6661 1.85547 19.7755 1.81641 21.8848C1.55431 22.4111 1.13439 22.5967 0.556641 22.4415C0.291799 22.323 0.0964863 22.1374 -0.0292969 21.8848Z" fill="white"/>
</g>
<defs>
<clipPath id="clip0_148_1243">
<rect width="30" height="30" fill="white"/>
</clipPath>
</defs>
</svg>
