<svg width="30" height="30" viewBox="0 0 30 30" fill="none" xmlns="http://www.w3.org/2000/svg">
<g clip-path="url(#clip0_148_1274)">
<path opacity="0.963" fill-rule="evenodd" clip-rule="evenodd" d="M13.623 -0.0292969C14.5215 -0.0292969 15.4199 -0.0292969 16.3184 -0.0292969C22.2288 0.723451 26.4182 3.80939 28.8867 9.22852C29.4432 10.6535 29.8045 12.1183 29.9707 13.623C29.9707 14.5215 29.9707 15.4199 29.9707 16.3184C29.357 21.5293 26.7984 25.4648 22.2949 28.125C20.4179 29.1382 18.4257 29.7534 16.3184 29.9707C15.4199 29.9707 14.5215 29.9707 13.623 29.9707C8.41213 29.357 4.47659 26.7984 1.81641 22.2949C0.80318 20.4179 0.187945 18.4257 -0.0292969 16.3184C-0.0292969 15.4199 -0.0292969 14.5215 -0.0292969 13.623C0.697301 7.90125 3.64652 3.7704 8.81836 1.23047C10.3648 0.570523 11.9663 0.150601 13.623 -0.0292969ZM14.9121 1.72852C19.423 1.85973 23.0265 3.7152 25.7227 7.29492C28.3904 11.2741 28.8787 15.5125 27.1875 20.0098C25.3308 24.1904 22.1764 26.8174 17.7246 27.8906C12.8044 28.7635 8.61498 27.4061 5.15625 23.8184C1.8094 19.8376 0.950027 15.3649 2.57812 10.4004C4.26135 6.15861 7.29844 3.41446 11.6895 2.16797C12.7588 1.91965 13.833 1.77316 14.9121 1.72852Z" fill="white"/>
<path opacity="0.962" fill-rule="evenodd" clip-rule="evenodd" d="M10.5762 8.93573C15.6809 8.71647 20.5637 9.64419 25.2246 11.7189C25.6137 12.0043 25.7406 12.3852 25.6054 12.8615C25.3507 13.3546 24.9503 13.5206 24.4043 13.3596C18.5233 10.766 12.4296 10.102 6.12303 11.3674C5.05431 11.4709 4.67345 11.0119 4.98045 9.99042C5.09022 9.86099 5.21717 9.75358 5.36131 9.66815C7.09012 9.29421 8.82836 9.05005 10.5762 8.93573Z" fill="white"/>
<path opacity="0.962" fill-rule="evenodd" clip-rule="evenodd" d="M10.6348 13.3878C15.1121 13.1642 19.3895 13.9748 23.4668 15.8195C23.8479 16.1231 23.9554 16.504 23.7891 16.9621C23.5488 17.3873 23.1875 17.5534 22.7051 17.4601C17.5966 15.1917 12.3036 14.6253 6.82617 15.7609C6.10816 15.9104 5.69798 15.6272 5.5957 14.9113C5.60067 14.579 5.73739 14.3154 6.00586 14.1203C7.53375 13.7366 9.0767 13.4925 10.6348 13.3878Z" fill="white"/>
<path opacity="0.961" fill-rule="evenodd" clip-rule="evenodd" d="M11.3379 17.9597C14.9399 17.854 18.3773 18.5473 21.6504 20.0398C22.1361 20.5694 22.1166 21.0773 21.5918 21.5632C21.4362 21.6477 21.2702 21.6965 21.0937 21.7097C20.4901 21.5106 19.8944 21.286 19.3066 21.0359C15.3686 19.6425 11.3647 19.4179 7.29489 20.3621C6.60612 20.235 6.32294 19.8249 6.44528 19.1316C6.50569 18.9535 6.61316 18.807 6.76755 18.6921C7.299 18.5007 7.84585 18.364 8.40818 18.282C9.38927 18.1335 10.3658 18.026 11.3379 17.9597Z" fill="white"/>
</g>
<defs>
<clipPath id="clip0_148_1274">
<rect width="30" height="30" fill="white"/>
</clipPath>
</defs>
</svg>
