<svg width="30" height="30" viewBox="0 0 30 30" fill="none" xmlns="http://www.w3.org/2000/svg">
<g clip-path="url(#clip0_148_1260)">
<path d="M18.335 30C13.5137 30 9.66623 26.2012 9.66623 21.2825C9.65928 19.1045 10.4672 17.0026 11.9312 15.39L6.03873 21.2825L2.94623 18.19L9.59498 11.615C10.495 10.715 10.9575 9.545 10.9575 8.255V0H15.3162V8.255C15.3162 10.7875 14.4162 12.93 12.6625 14.6838L12.4675 14.8787C14.0714 13.4169 16.1648 12.6088 18.335 12.6137C23.2787 12.6137 27.0537 16.5337 27.0537 21.2825C27.0589 22.4288 26.8368 23.5648 26.4005 24.6249C25.9641 25.6849 25.3221 26.6481 24.5114 27.4586C23.7008 28.2691 22.7376 28.911 21.6775 29.3472C20.6173 29.7834 19.4813 30.0053 18.335 30ZM18.335 16.6075C15.6812 16.6075 13.6112 18.7987 13.6112 21.2825C13.6112 23.8387 15.705 26.0075 18.3362 26.0075C19.5952 26.0122 20.8046 25.5174 21.6993 24.6316C22.5939 23.7458 23.1008 22.5414 23.1087 21.2825C23.1087 18.7012 20.965 16.6075 18.335 16.6075Z" fill="white"/>
</g>
<defs>
<clipPath id="clip0_148_1260">
<rect width="30" height="30" fill="white"/>
</clipPath>
</defs>
</svg>
