<svg width="777" height="22" viewBox="0 0 777 22" fill="none" xmlns="http://www.w3.org/2000/svg">
<path d="M11.2421 14.1583L16.2521 4.19828H22.5521L27.5621 14.1583L32.1222 0.47828H38.6022L30.9221 21.2383H25.1921L19.4321 9.50828H19.3721L13.5821 21.2383H7.88215L0.172148 0.47828H6.65215L11.2421 14.1583ZM47.5452 8.27828H64.1952V0.47828H70.0452V21.2383H64.1952V13.4383H47.5452V21.2383H41.6952V0.47828H47.5452V8.27828ZM74.7421 0.47828H99.4621V5.48828H80.4421V8.39828H97.3621V13.3183H80.4421V16.1983H99.4621V21.2383H74.7421V0.47828ZM131.172 21.2383H124.752L120.972 15.1183H109.212V21.2383H103.512V0.47828H121.302C128.112 0.47828 130.662 3.56828 130.662 7.85828V7.88828C130.662 10.7983 129.462 13.1083 126.552 14.2783L131.172 21.2383ZM121.302 5.54828H109.212V10.2583H121.302C123.852 10.2583 124.962 9.65828 124.962 7.88828V7.85828C124.962 6.17828 123.852 5.54828 121.302 5.54828ZM134.537 0.47828H159.257V5.48828H140.237V8.39828H157.157V13.3183H140.237V16.1983H159.257V21.2383H134.537V0.47828ZM179.078 0.47828L189.848 11.4583L200.618 0.47828H206.048V21.2383H200.288V8.60828L191.198 17.8783H188.498L179.408 8.60828V21.2383H173.648V0.47828H179.078ZM233.207 11.3083V0.47828H239.057V11.3083C239.057 18.1183 234.977 21.4183 228.257 21.4183H221.027C214.307 21.4183 210.227 18.1183 210.227 11.3083V0.47828H216.077V11.3083C216.077 14.7283 218.147 16.1083 221.027 16.1083H228.257C231.107 16.1083 233.207 14.7283 233.207 11.3083ZM268.458 3.62828L264.018 6.71828C263.058 5.54828 261.948 5.18828 259.878 5.18828H250.428C248.808 5.18828 247.848 5.60828 247.848 6.50828C247.848 7.25828 248.328 7.67828 250.218 7.91828L262.278 8.60828C267.318 9.11828 268.758 12.0883 268.758 15.0583C268.758 18.6883 266.148 21.4183 260.748 21.4183H251.058C246.108 21.4183 243.018 19.8283 241.758 17.0683L246.828 14.2183C247.758 16.0783 248.988 16.5283 251.118 16.5283H260.808C262.518 16.5283 263.358 16.0483 263.358 15.0283C263.358 14.0383 262.638 13.6483 261.138 13.4683L248.718 12.6283C244.038 12.1183 242.478 9.50828 242.478 6.65828C242.478 2.90828 245.088 0.298281 250.698 0.298281H259.968C264.258 0.298281 267.048 1.52828 268.458 3.62828ZM278.053 21.2383H272.203V0.47828H278.053V21.2383ZM309.81 2.93828L306.45 7.04828C305.22 5.84828 303.6 5.51828 301.41 5.51828H292.98C289.32 5.51828 287.22 7.52828 287.22 10.8283V10.8583C287.25 14.1883 289.35 16.1983 292.98 16.1983H301.41C303.75 16.1983 305.28 15.8083 306.45 14.6383L309.81 18.7783C307.8 20.6683 305.31 21.4183 301.41 21.4183H292.98C285.75 21.4183 281.52 17.3683 281.52 10.8583V10.8283C281.52 4.31828 285.75 0.298281 292.98 0.298281H301.41C305.16 0.298281 307.74 0.958279 309.81 2.93828ZM328.668 0.47828L339.438 11.4583L350.208 0.47828H355.638V21.2383H349.878V8.60828L340.788 17.8783H338.088L328.998 8.60828V21.2383H323.238V0.47828H328.668ZM360.387 0.47828H385.107V5.48828H366.087V8.39828H383.007V13.3183H366.087V16.1983H385.107V21.2383H360.387V0.47828ZM389.156 0.47828H413.876V5.48828H394.856V8.39828H411.776V13.3183H394.856V16.1983H413.876V21.2383H389.156V0.47828ZM416.486 0.47828H442.736V5.84828H432.536V21.2383H426.686V5.84828H416.486V0.47828ZM471.251 3.62828L466.811 6.71828C465.851 5.54828 464.741 5.18828 462.671 5.18828H453.221C451.601 5.18828 450.641 5.60828 450.641 6.50828C450.641 7.25828 451.121 7.67828 453.011 7.91828L465.071 8.60828C470.111 9.11828 471.551 12.0883 471.551 15.0583C471.551 18.6883 468.941 21.4183 463.541 21.4183H453.851C448.901 21.4183 445.811 19.8283 444.551 17.0683L449.621 14.2183C450.551 16.0783 451.781 16.5283 453.911 16.5283H463.601C465.311 16.5283 466.151 16.0483 466.151 15.0283C466.151 14.0383 465.431 13.6483 463.931 13.4683L451.511 12.6283C446.831 12.1183 445.271 9.50828 445.271 6.65828C445.271 2.90828 447.881 0.298281 453.491 0.298281H462.761C467.051 0.298281 469.841 1.52828 471.251 3.62828ZM483.898 0.47828H510.148V5.84828H499.948V21.2383H494.098V5.84828H483.898V0.47828ZM519.283 8.27828H535.933V0.47828H541.783V21.2383H535.933V13.4383H519.283V21.2383H513.433V0.47828H519.283V8.27828ZM546.48 0.47828H571.2V5.48828H552.18V8.39828H569.1V13.3183H552.18V16.1983H571.2V21.2383H546.48V0.47828ZM612.652 2.93828L609.292 7.04828C608.062 5.84828 606.442 5.51828 604.252 5.51828H595.822C592.162 5.51828 590.062 7.52828 590.062 10.8283V10.8583C590.092 14.1883 592.192 16.1983 595.822 16.1983H604.252C606.592 16.1983 608.122 15.8083 609.292 14.6383L612.652 18.7783C610.642 20.6683 608.152 21.4183 604.252 21.4183H595.822C588.592 21.4183 584.362 17.3683 584.362 10.8583V10.8283C584.362 4.31828 588.592 0.298281 595.822 0.298281H604.252C608.002 0.298281 610.582 0.958279 612.652 2.93828ZM625.968 0.298281H635.298C642.528 0.298281 646.758 4.31828 646.758 10.8283V10.8583C646.758 17.3683 642.528 21.4183 635.298 21.4183H625.968C618.738 21.4183 614.508 17.3683 614.508 10.8583V10.8283C614.508 4.31828 618.738 0.298281 625.968 0.298281ZM625.968 16.1983H635.298C639.168 16.1983 641.058 14.1283 641.058 10.8583V10.8283C641.058 7.58828 639.168 5.51828 635.298 5.51828H625.968C622.098 5.51828 620.208 7.58828 620.208 10.8283V10.8583C620.208 14.1283 622.098 16.1983 625.968 16.1983ZM675.509 3.62828L671.069 6.71828C670.109 5.54828 668.999 5.18828 666.929 5.18828H657.479C655.859 5.18828 654.899 5.60828 654.899 6.50828C654.899 7.25828 655.379 7.67828 657.269 7.91828L669.329 8.60828C674.369 9.11828 675.809 12.0883 675.809 15.0583C675.809 18.6883 673.199 21.4183 667.799 21.4183H658.109C653.159 21.4183 650.069 19.8283 648.809 17.0683L653.879 14.2183C654.809 16.0783 656.039 16.5283 658.169 16.5283H667.859C669.569 16.5283 670.409 16.0483 670.409 15.0283C670.409 14.0383 669.689 13.6483 668.189 13.4683L655.769 12.6283C651.089 12.1183 649.529 9.50828 649.529 6.65828C649.529 2.90828 652.139 0.298281 657.749 0.298281H667.019C671.309 0.298281 674.099 1.52828 675.509 3.62828ZM684.684 0.47828L695.454 11.4583L706.224 0.47828H711.654V21.2383H705.894V8.60828L696.804 17.8783H694.104L685.014 8.60828V21.2383H679.254V0.47828H684.684ZM726.632 0.298281H735.962C743.192 0.298281 747.422 4.31828 747.422 10.8283V10.8583C747.422 17.3683 743.192 21.4183 735.962 21.4183H726.632C719.402 21.4183 715.172 17.3683 715.172 10.8583V10.8283C715.172 4.31828 719.402 0.298281 726.632 0.298281ZM726.632 16.1983H735.962C739.832 16.1983 741.722 14.1283 741.722 10.8583V10.8283C741.722 7.58828 739.832 5.51828 735.962 5.51828H726.632C722.762 5.51828 720.872 7.58828 720.872 10.8283V10.8583C720.872 14.1283 722.762 16.1983 726.632 16.1983ZM776.173 3.62828L771.733 6.71828C770.773 5.54828 769.663 5.18828 767.593 5.18828H758.143C756.523 5.18828 755.563 5.60828 755.563 6.50828C755.563 7.25828 756.043 7.67828 757.933 7.91828L769.993 8.60828C775.033 9.11828 776.473 12.0883 776.473 15.0583C776.473 18.6883 773.863 21.4183 768.463 21.4183H758.773C753.823 21.4183 750.733 19.8283 749.473 17.0683L754.543 14.2183C755.473 16.0783 756.703 16.5283 758.833 16.5283H768.523C770.233 16.5283 771.073 16.0483 771.073 15.0283C771.073 14.0383 770.353 13.6483 768.853 13.4683L756.433 12.6283C751.753 12.1183 750.193 9.50828 750.193 6.65828C750.193 2.90828 752.803 0.298281 758.413 0.298281H767.683C771.973 0.298281 774.763 1.52828 776.173 3.62828Z" fill="white"/>
</svg>
