<svg width="780" height="24" viewBox="0 0 780 24" fill="none" xmlns="http://www.w3.org/2000/svg">
<mask id="path-1-outside-1_95_1636" maskUnits="userSpaceOnUse" x="0" y="0.238281" width="780" height="24" fill="black">
<rect fill="white" y="0.238281" width="780" height="24"/>
<path d="M13.2421 15.1583L18.2521 5.19828H24.5521L29.5621 15.1583L34.1222 1.47828H40.6022L32.9221 22.2383H27.1921L21.4321 10.5083H21.3721L15.5821 22.2383H9.88215L2.17215 1.47828H8.65215L13.2421 15.1583ZM49.5452 9.27828H66.1952V1.47828H72.0452V22.2383H66.1952V14.4383H49.5452V22.2383H43.6952V1.47828H49.5452V9.27828ZM76.7421 1.47828H101.462V6.48828H82.4421V9.39828H99.3621V14.3183H82.4421V17.1983H101.462V22.2383H76.7421V1.47828ZM133.172 22.2383H126.752L122.972 16.1183H111.212V22.2383H105.512V1.47828H123.302C130.112 1.47828 132.662 4.56828 132.662 8.85828V8.88828C132.662 11.7983 131.462 14.1083 128.552 15.2783L133.172 22.2383ZM123.302 6.54828H111.212V11.2583H123.302C125.852 11.2583 126.962 10.6583 126.962 8.88828V8.85828C126.962 7.17828 125.852 6.54828 123.302 6.54828ZM136.537 1.47828H161.257V6.48828H142.237V9.39828H159.157V14.3183H142.237V17.1983H161.257V22.2383H136.537V1.47828ZM181.078 1.47828L191.848 12.4583L202.618 1.47828H208.048V22.2383H202.288V9.60828L193.198 18.8783H190.498L181.408 9.60828V22.2383H175.648V1.47828H181.078ZM235.207 12.3083V1.47828H241.057V12.3083C241.057 19.1183 236.977 22.4183 230.257 22.4183H223.027C216.307 22.4183 212.227 19.1183 212.227 12.3083V1.47828H218.077V12.3083C218.077 15.7283 220.147 17.1083 223.027 17.1083H230.257C233.107 17.1083 235.207 15.7283 235.207 12.3083ZM270.458 4.62828L266.018 7.71828C265.058 6.54828 263.948 6.18828 261.878 6.18828H252.428C250.808 6.18828 249.848 6.60828 249.848 7.50828C249.848 8.25828 250.328 8.67828 252.218 8.91828L264.278 9.60828C269.318 10.1183 270.758 13.0883 270.758 16.0583C270.758 19.6883 268.148 22.4183 262.748 22.4183H253.058C248.108 22.4183 245.018 20.8283 243.758 18.0683L248.828 15.2183C249.758 17.0783 250.988 17.5283 253.118 17.5283H262.808C264.518 17.5283 265.358 17.0483 265.358 16.0283C265.358 15.0383 264.638 14.6483 263.138 14.4683L250.718 13.6283C246.038 13.1183 244.478 10.5083 244.478 7.65828C244.478 3.90828 247.088 1.29828 252.698 1.29828H261.968C266.258 1.29828 269.048 2.52828 270.458 4.62828ZM280.053 22.2383H274.203V1.47828H280.053V22.2383ZM311.81 3.93828L308.45 8.04828C307.22 6.84828 305.6 6.51828 303.41 6.51828H294.98C291.32 6.51828 289.22 8.52828 289.22 11.8283V11.8583C289.25 15.1883 291.35 17.1983 294.98 17.1983H303.41C305.75 17.1983 307.28 16.8083 308.45 15.6383L311.81 19.7783C309.8 21.6683 307.31 22.4183 303.41 22.4183H294.98C287.75 22.4183 283.52 18.3683 283.52 11.8583V11.8283C283.52 5.31828 287.75 1.29828 294.98 1.29828H303.41C307.16 1.29828 309.74 1.95828 311.81 3.93828ZM330.668 1.47828L341.438 12.4583L352.208 1.47828H357.638V22.2383H351.878V9.60828L342.788 18.8783H340.088L330.998 9.60828V22.2383H325.238V1.47828H330.668ZM362.387 1.47828H387.107V6.48828H368.087V9.39828H385.007V14.3183H368.087V17.1983H387.107V22.2383H362.387V1.47828ZM391.156 1.47828H415.876V6.48828H396.856V9.39828H413.776V14.3183H396.856V17.1983H415.876V22.2383H391.156V1.47828ZM418.486 1.47828H444.736V6.84828H434.536V22.2383H428.686V6.84828H418.486V1.47828ZM473.251 4.62828L468.811 7.71828C467.851 6.54828 466.741 6.18828 464.671 6.18828H455.221C453.601 6.18828 452.641 6.60828 452.641 7.50828C452.641 8.25828 453.121 8.67828 455.011 8.91828L467.071 9.60828C472.111 10.1183 473.551 13.0883 473.551 16.0583C473.551 19.6883 470.941 22.4183 465.541 22.4183H455.851C450.901 22.4183 447.811 20.8283 446.551 18.0683L451.621 15.2183C452.551 17.0783 453.781 17.5283 455.911 17.5283H465.601C467.311 17.5283 468.151 17.0483 468.151 16.0283C468.151 15.0383 467.431 14.6483 465.931 14.4683L453.511 13.6283C448.831 13.1183 447.271 10.5083 447.271 7.65828C447.271 3.90828 449.881 1.29828 455.491 1.29828H464.761C469.051 1.29828 471.841 2.52828 473.251 4.62828ZM485.898 1.47828H512.148V6.84828H501.948V22.2383H496.098V6.84828H485.898V1.47828ZM521.283 9.27828H537.933V1.47828H543.783V22.2383H537.933V14.4383H521.283V22.2383H515.433V1.47828H521.283V9.27828ZM548.48 1.47828H573.2V6.48828H554.18V9.39828H571.1V14.3183H554.18V17.1983H573.2V22.2383H548.48V1.47828ZM614.652 3.93828L611.292 8.04828C610.062 6.84828 608.442 6.51828 606.252 6.51828H597.822C594.162 6.51828 592.062 8.52828 592.062 11.8283V11.8583C592.092 15.1883 594.192 17.1983 597.822 17.1983H606.252C608.592 17.1983 610.122 16.8083 611.292 15.6383L614.652 19.7783C612.642 21.6683 610.152 22.4183 606.252 22.4183H597.822C590.592 22.4183 586.362 18.3683 586.362 11.8583V11.8283C586.362 5.31828 590.592 1.29828 597.822 1.29828H606.252C610.002 1.29828 612.582 1.95828 614.652 3.93828ZM627.968 1.29828H637.298C644.528 1.29828 648.758 5.31828 648.758 11.8283V11.8583C648.758 18.3683 644.528 22.4183 637.298 22.4183H627.968C620.738 22.4183 616.508 18.3683 616.508 11.8583V11.8283C616.508 5.31828 620.738 1.29828 627.968 1.29828ZM627.968 17.1983H637.298C641.168 17.1983 643.058 15.1283 643.058 11.8583V11.8283C643.058 8.58828 641.168 6.51828 637.298 6.51828H627.968C624.098 6.51828 622.208 8.58828 622.208 11.8283V11.8583C622.208 15.1283 624.098 17.1983 627.968 17.1983ZM677.509 4.62828L673.069 7.71828C672.109 6.54828 670.999 6.18828 668.929 6.18828H659.479C657.859 6.18828 656.899 6.60828 656.899 7.50828C656.899 8.25828 657.379 8.67828 659.269 8.91828L671.329 9.60828C676.369 10.1183 677.809 13.0883 677.809 16.0583C677.809 19.6883 675.199 22.4183 669.799 22.4183H660.109C655.159 22.4183 652.069 20.8283 650.809 18.0683L655.879 15.2183C656.809 17.0783 658.039 17.5283 660.169 17.5283H669.859C671.569 17.5283 672.409 17.0483 672.409 16.0283C672.409 15.0383 671.689 14.6483 670.189 14.4683L657.769 13.6283C653.089 13.1183 651.529 10.5083 651.529 7.65828C651.529 3.90828 654.139 1.29828 659.749 1.29828H669.019C673.309 1.29828 676.099 2.52828 677.509 4.62828ZM686.684 1.47828L697.454 12.4583L708.224 1.47828H713.654V22.2383H707.894V9.60828L698.804 18.8783H696.104L687.014 9.60828V22.2383H681.254V1.47828H686.684ZM728.632 1.29828H737.962C745.192 1.29828 749.422 5.31828 749.422 11.8283V11.8583C749.422 18.3683 745.192 22.4183 737.962 22.4183H728.632C721.402 22.4183 717.172 18.3683 717.172 11.8583V11.8283C717.172 5.31828 721.402 1.29828 728.632 1.29828ZM728.632 17.1983H737.962C741.832 17.1983 743.722 15.1283 743.722 11.8583V11.8283C743.722 8.58828 741.832 6.51828 737.962 6.51828H728.632C724.762 6.51828 722.872 8.58828 722.872 11.8283V11.8583C722.872 15.1283 724.762 17.1983 728.632 17.1983ZM778.173 4.62828L773.733 7.71828C772.773 6.54828 771.663 6.18828 769.593 6.18828H760.143C758.523 6.18828 757.563 6.60828 757.563 7.50828C757.563 8.25828 758.043 8.67828 759.933 8.91828L771.993 9.60828C777.033 10.1183 778.473 13.0883 778.473 16.0583C778.473 19.6883 775.863 22.4183 770.463 22.4183H760.773C755.823 22.4183 752.733 20.8283 751.473 18.0683L756.543 15.2183C757.473 17.0783 758.703 17.5283 760.833 17.5283H770.523C772.233 17.5283 773.073 17.0483 773.073 16.0283C773.073 15.0383 772.353 14.6483 770.853 14.4683L758.433 13.6283C753.753 13.1183 752.193 10.5083 752.193 7.65828C752.193 3.90828 754.803 1.29828 760.413 1.29828H769.683C773.973 1.29828 776.763 2.52828 778.173 4.62828Z"/>
</mask>
<path d="M13.2421 15.1583L12.2941 15.4764L13.0573 17.7511L14.1355 15.6076L13.2421 15.1583ZM18.2521 5.19828V4.19828H17.6358L17.3588 4.74892L18.2521 5.19828ZM24.5521 5.19828L25.4455 4.74892L25.1685 4.19828H24.5521V5.19828ZM29.5621 15.1583L28.6688 15.6076L29.75 17.7571L30.5108 15.4745L29.5621 15.1583ZM34.1222 1.47828V0.47828H33.4014L33.1735 1.16205L34.1222 1.47828ZM40.6021 1.47828L41.54 1.82524L42.0383 0.47828H40.6021V1.47828ZM32.9221 22.2383V23.2383H33.6184L33.86 22.5852L32.9221 22.2383ZM27.1922 22.2383L26.2945 22.6791L26.5691 23.2383H27.1922V22.2383ZM21.4321 10.5083L22.3298 10.0675L22.0552 9.50828H21.4321V10.5083ZM21.3722 10.5083V9.50828H20.7506L20.4754 10.0657L21.3722 10.5083ZM15.5821 22.2383V23.2383H16.2037L16.4789 22.6809L15.5821 22.2383ZM9.88215 22.2383L8.94471 22.5864L9.1868 23.2383H9.88215V22.2383ZM2.17215 1.47828V0.47828H0.734024L1.23471 1.82643L2.17215 1.47828ZM8.65215 1.47828L9.60021 1.16018L9.37141 0.47828H8.65215V1.47828ZM14.1355 15.6076L19.1455 5.64765L17.3588 4.74892L12.3488 14.7089L14.1355 15.6076ZM18.2521 6.19828H24.5521V4.19828H18.2521V6.19828ZM23.6588 5.64765L28.6688 15.6076L30.4555 14.7089L25.4455 4.74892L23.6588 5.64765ZM30.5108 15.4745L35.0708 1.79451L33.1735 1.16205L28.6135 14.8421L30.5108 15.4745ZM34.1222 2.47828H40.6021V0.47828H34.1222V2.47828ZM39.6643 1.13132L31.9843 21.8913L33.86 22.5852L41.54 1.82524L39.6643 1.13132ZM32.9221 21.2383H27.1922V23.2383H32.9221V21.2383ZM28.0898 21.7975L22.3298 10.0675L20.5345 10.9491L26.2945 22.6791L28.0898 21.7975ZM21.4321 9.50828H21.3722V11.5083H21.4321V9.50828ZM20.4754 10.0657L14.6854 21.7957L16.4789 22.6809L22.2689 10.9509L20.4754 10.0657ZM15.5821 21.2383H9.88215V23.2383H15.5821V21.2383ZM10.8196 21.8901L3.10959 1.13013L1.23471 1.82643L8.94471 22.5864L10.8196 21.8901ZM2.17215 2.47828H8.65215V0.47828H2.17215V2.47828ZM7.70409 1.79638L12.2941 15.4764L14.1902 14.8402L9.60021 1.16018L7.70409 1.79638ZM49.5452 9.27828H48.5452V10.2783H49.5452V9.27828ZM66.1952 9.27828V10.2783H67.1952V9.27828H66.1952ZM66.1952 1.47828V0.47828H65.1952V1.47828H66.1952ZM72.0452 1.47828H73.0452V0.47828H72.0452V1.47828ZM72.0452 22.2383V23.2383H73.0452V22.2383H72.0452ZM66.1952 22.2383H65.1952V23.2383H66.1952V22.2383ZM66.1952 14.4383H67.1952V13.4383H66.1952V14.4383ZM49.5452 14.4383V13.4383H48.5452V14.4383H49.5452ZM49.5452 22.2383V23.2383H50.5452V22.2383H49.5452ZM43.6952 22.2383H42.6952V23.2383H43.6952V22.2383ZM43.6952 1.47828V0.47828H42.6952V1.47828H43.6952ZM49.5452 1.47828H50.5452V0.47828H49.5452V1.47828ZM49.5452 10.2783H66.1952V8.27828H49.5452V10.2783ZM67.1952 9.27828V1.47828H65.1952V9.27828H67.1952ZM66.1952 2.47828H72.0452V0.47828H66.1952V2.47828ZM71.0452 1.47828V22.2383H73.0452V1.47828H71.0452ZM72.0452 21.2383H66.1952V23.2383H72.0452V21.2383ZM67.1952 22.2383V14.4383H65.1952V22.2383H67.1952ZM66.1952 13.4383H49.5452V15.4383H66.1952V13.4383ZM48.5452 14.4383V22.2383H50.5452V14.4383H48.5452ZM49.5452 21.2383H43.6952V23.2383H49.5452V21.2383ZM44.6952 22.2383V1.47828H42.6952V22.2383H44.6952ZM43.6952 2.47828H49.5452V0.47828H43.6952V2.47828ZM48.5452 1.47828V9.27828H50.5452V1.47828H48.5452ZM76.7421 1.47828V0.47828H75.7421V1.47828H76.7421ZM101.462 1.47828H102.462V0.47828H101.462V1.47828ZM101.462 6.48828V7.48828H102.462V6.48828H101.462ZM82.4421 6.48828V5.48828H81.4421V6.48828H82.4421ZM82.4421 9.39828H81.4421V10.3983H82.4421V9.39828ZM99.3621 9.39828H100.362V8.39828H99.3621V9.39828ZM99.3621 14.3183V15.3183H100.362V14.3183H99.3621ZM82.4421 14.3183V13.3183H81.4421V14.3183H82.4421ZM82.4421 17.1983H81.4421V18.1983H82.4421V17.1983ZM101.462 17.1983H102.462V16.1983H101.462V17.1983ZM101.462 22.2383V23.2383H102.462V22.2383H101.462ZM76.7421 22.2383H75.7421V23.2383H76.7421V22.2383ZM76.7421 2.47828H101.462V0.47828H76.7421V2.47828ZM100.462 1.47828V6.48828H102.462V1.47828H100.462ZM101.462 5.48828H82.4421V7.48828H101.462V5.48828ZM81.4421 6.48828V9.39828H83.4421V6.48828H81.4421ZM82.4421 10.3983H99.3621V8.39828H82.4421V10.3983ZM98.3621 9.39828V14.3183H100.362V9.39828H98.3621ZM99.3621 13.3183H82.4421V15.3183H99.3621V13.3183ZM81.4421 14.3183V17.1983H83.4421V14.3183H81.4421ZM82.4421 18.1983H101.462V16.1983H82.4421V18.1983ZM100.462 17.1983V22.2383H102.462V17.1983H100.462ZM101.462 21.2383H76.7421V23.2383H101.462V21.2383ZM77.7421 22.2383V1.47828H75.7421V22.2383H77.7421ZM133.172 22.2383V23.2383H135.036L134.005 21.6852L133.172 22.2383ZM126.752 22.2383L125.901 22.7638L126.194 23.2383H126.752V22.2383ZM122.972 16.1183L123.822 15.5928L123.529 15.1183H122.972V16.1183ZM111.212 16.1183V15.1183H110.212V16.1183H111.212ZM111.212 22.2383V23.2383H112.212V22.2383H111.212ZM105.512 22.2383H104.512V23.2383H105.512V22.2383ZM105.512 1.47828V0.47828H104.512V1.47828H105.512ZM128.552 15.2783L128.179 14.3505L127.039 14.8085L127.718 15.8313L128.552 15.2783ZM111.212 6.54828V5.54828H110.212V6.54828H111.212ZM111.212 11.2583H110.212V12.2583H111.212V11.2583ZM133.172 21.2383H126.752V23.2383H133.172V21.2383ZM127.602 21.7128L123.822 15.5928L122.121 16.6438L125.901 22.7638L127.602 21.7128ZM122.972 15.1183H111.212V17.1183H122.972V15.1183ZM110.212 16.1183V22.2383H112.212V16.1183H110.212ZM111.212 21.2383H105.512V23.2383H111.212V21.2383ZM106.512 22.2383V1.47828H104.512V22.2383H106.512ZM105.512 2.47828H123.302V0.47828H105.512V2.47828ZM123.302 2.47828C126.574 2.47828 128.638 3.22265 129.875 4.31058C131.09 5.37901 131.662 6.91437 131.662 8.85828H133.662C133.662 6.51219 132.958 4.35755 131.196 2.80848C129.456 1.27891 126.839 0.47828 123.302 0.47828V2.47828ZM131.662 8.85828V8.88828H133.662V8.85828H131.662ZM131.662 8.88828C131.662 10.2086 131.39 11.3214 130.844 12.2148C130.305 13.0984 129.457 13.8366 128.179 14.3505L128.925 16.2061C130.557 15.55 131.763 14.5481 132.551 13.2568C133.334 11.9751 133.662 10.478 133.662 8.88828H131.662ZM127.718 15.8313L132.338 22.7913L134.005 21.6852L129.385 14.7252L127.718 15.8313ZM123.302 5.54828H111.212V7.54828H123.302V5.54828ZM110.212 6.54828V11.2583H112.212V6.54828H110.212ZM111.212 12.2583H123.302V10.2583H111.212V12.2583ZM123.302 12.2583C124.603 12.2583 125.765 12.1158 126.616 11.5859C127.587 10.9819 127.962 10.0116 127.962 8.88828H125.962C125.962 9.53495 125.782 9.74966 125.559 9.88813C125.218 10.1007 124.551 10.2583 123.302 10.2583V12.2583ZM127.962 8.88828V8.85828H125.962V8.88828H127.962ZM127.962 8.85828C127.962 7.76066 127.573 6.81401 126.613 6.22199C125.766 5.70042 124.611 5.54828 123.302 5.54828V7.54828C124.543 7.54828 125.217 7.71114 125.563 7.92457C125.795 8.06756 125.962 8.2759 125.962 8.85828H127.962ZM136.537 1.47828V0.47828H135.537V1.47828H136.537ZM161.257 1.47828H162.257V0.47828H161.257V1.47828ZM161.257 6.48828V7.48828H162.257V6.48828H161.257ZM142.237 6.48828V5.48828H141.237V6.48828H142.237ZM142.237 9.39828H141.237V10.3983H142.237V9.39828ZM159.157 9.39828H160.157V8.39828H159.157V9.39828ZM159.157 14.3183V15.3183H160.157V14.3183H159.157ZM142.237 14.3183V13.3183H141.237V14.3183H142.237ZM142.237 17.1983H141.237V18.1983H142.237V17.1983ZM161.257 17.1983H162.257V16.1983H161.257V17.1983ZM161.257 22.2383V23.2383H162.257V22.2383H161.257ZM136.537 22.2383H135.537V23.2383H136.537V22.2383ZM136.537 2.47828H161.257V0.47828H136.537V2.47828ZM160.257 1.47828V6.48828H162.257V1.47828H160.257ZM161.257 5.48828H142.237V7.48828H161.257V5.48828ZM141.237 6.48828V9.39828H143.237V6.48828H141.237ZM142.237 10.3983H159.157V8.39828H142.237V10.3983ZM158.157 9.39828V14.3183H160.157V9.39828H158.157ZM159.157 13.3183H142.237V15.3183H159.157V13.3183ZM141.237 14.3183V17.1983H143.237V14.3183H141.237ZM142.237 18.1983H161.257V16.1983H142.237V18.1983ZM160.257 17.1983V22.2383H162.257V17.1983H160.257ZM161.257 21.2383H136.537V23.2383H161.257V21.2383ZM137.537 22.2383V1.47828H135.537V22.2383H137.537ZM181.078 1.47828L181.792 0.778033L181.498 0.47828H181.078V1.47828ZM191.848 12.4583L191.134 13.1585L191.848 13.8863L192.562 13.1585L191.848 12.4583ZM202.618 1.47828V0.47828H202.198L201.904 0.778033L202.618 1.47828ZM208.048 1.47828H209.048V0.47828H208.048V1.47828ZM208.048 22.2383V23.2383H209.048V22.2383H208.048ZM202.288 22.2383H201.288V23.2383H202.288V22.2383ZM202.288 9.60828H203.288V7.16019L201.574 8.90814L202.288 9.60828ZM193.198 18.8783V19.8783H193.618L193.912 19.5784L193.198 18.8783ZM190.498 18.8783L189.784 19.5784L190.078 19.8783H190.498V18.8783ZM181.408 9.60828L182.122 8.90814L180.408 7.16019V9.60828H181.408ZM181.408 22.2383V23.2383H182.408V22.2383H181.408ZM175.648 22.2383H174.648V23.2383H175.648V22.2383ZM175.648 1.47828V0.47828H174.648V1.47828H175.648ZM180.364 2.17853L191.134 13.1585L192.562 11.758L181.792 0.778033L180.364 2.17853ZM192.562 13.1585L203.332 2.17853L201.904 0.778033L191.134 11.758L192.562 13.1585ZM202.618 2.47828H208.048V0.47828H202.618V2.47828ZM207.048 1.47828V22.2383H209.048V1.47828H207.048ZM208.048 21.2383H202.288V23.2383H208.048V21.2383ZM203.288 22.2383V9.60828H201.288V22.2383H203.288ZM201.574 8.90814L192.484 18.1781L193.912 19.5784L203.002 10.3084L201.574 8.90814ZM193.198 17.8783H190.498V19.8783H193.198V17.8783ZM191.212 18.1781L182.122 8.90814L180.694 10.3084L189.784 19.5784L191.212 18.1781ZM180.408 9.60828V22.2383H182.408V9.60828H180.408ZM181.408 21.2383H175.648V23.2383H181.408V21.2383ZM176.648 22.2383V1.47828H174.648V22.2383H176.648ZM175.648 2.47828H181.078V0.47828H175.648V2.47828ZM235.207 1.47828V0.47828H234.207V1.47828H235.207ZM241.057 1.47828H242.057V0.47828H241.057V1.47828ZM212.227 1.47828V0.47828H211.227V1.47828H212.227ZM218.077 1.47828H219.077V0.47828H218.077V1.47828ZM236.207 12.3083V1.47828H234.207V12.3083H236.207ZM235.207 2.47828H241.057V0.47828H235.207V2.47828ZM240.057 1.47828V12.3083H242.057V1.47828H240.057ZM240.057 12.3083C240.057 15.5093 239.104 17.7348 237.507 19.1742C235.892 20.6295 233.467 21.4183 230.257 21.4183V23.4183C233.766 23.4183 236.741 22.5571 238.846 20.6599C240.969 18.7467 242.057 15.9173 242.057 12.3083H240.057ZM230.257 21.4183H223.027V23.4183H230.257V21.4183ZM223.027 21.4183C219.816 21.4183 217.391 20.6295 215.776 19.1742C214.179 17.7348 213.227 15.5093 213.227 12.3083H211.227C211.227 15.9173 212.314 18.7467 214.437 20.6599C216.542 22.5571 219.517 23.4183 223.027 23.4183V21.4183ZM213.227 12.3083V1.47828H211.227V12.3083H213.227ZM212.227 2.47828H218.077V0.47828H212.227V2.47828ZM217.077 1.47828V12.3083H219.077V1.47828H217.077ZM217.077 12.3083C217.077 14.2266 217.665 15.7324 218.811 16.7414C219.934 17.7303 221.444 18.1083 223.027 18.1083V16.1083C221.73 16.1083 220.764 15.7963 220.133 15.2402C219.524 14.7042 219.077 13.81 219.077 12.3083H217.077ZM223.027 18.1083H230.257V16.1083H223.027V18.1083ZM230.257 18.1083C231.827 18.1083 233.334 17.7293 234.46 16.7428C235.608 15.7358 236.207 14.231 236.207 12.3083H234.207C234.207 13.8056 233.755 14.7008 233.141 15.2388C232.504 15.7972 231.536 16.1083 230.257 16.1083V18.1083ZM270.458 4.62828L271.03 5.44907L271.837 4.88731L271.289 4.07085L270.458 4.62828ZM266.018 7.71828L265.245 8.3526L265.831 9.0668L266.59 8.53907L266.018 7.71828ZM252.218 8.91828L252.092 9.91031L252.127 9.91467L252.161 9.91665L252.218 8.91828ZM264.278 9.60828L264.379 8.61336L264.357 8.61116L264.336 8.60991L264.278 9.60828ZM243.758 18.0683L243.268 17.1966L242.467 17.6471L242.849 18.4836L243.758 18.0683ZM248.828 15.2183L249.723 14.7711L249.253 13.8322L248.338 14.3466L248.828 15.2183ZM263.138 14.4683L263.258 13.4754L263.232 13.4723L263.206 13.4706L263.138 14.4683ZM250.718 13.6283L250.61 14.6224L250.63 14.6246L250.651 14.626L250.718 13.6283ZM269.887 3.80749L265.447 6.89749L266.59 8.53907L271.03 5.44907L269.887 3.80749ZM266.791 7.08396C266.212 6.37744 265.55 5.87845 264.703 5.57364C263.887 5.27978 262.957 5.18828 261.878 5.18828V7.18828C262.869 7.18828 263.53 7.27678 264.026 7.45542C264.492 7.62312 264.865 7.88912 265.245 8.3526L266.791 7.08396ZM261.878 5.18828H252.428V7.18828H261.878V5.18828ZM252.428 5.18828C251.561 5.18828 250.735 5.29601 250.09 5.61333C249.755 5.77778 249.437 6.01447 249.203 6.35169C248.962 6.69753 248.848 7.09489 248.848 7.50828H250.848C250.848 7.47167 250.855 7.47903 250.845 7.493C250.841 7.49834 250.864 7.46128 250.972 7.40823C251.211 7.29055 251.675 7.18828 252.428 7.18828V5.18828ZM248.848 7.50828C248.848 7.80114 248.895 8.13294 249.059 8.45959C249.226 8.79309 249.48 9.05065 249.784 9.246C250.343 9.60467 251.131 9.78825 252.092 9.91031L252.344 7.92625C251.416 7.80831 251.019 7.66189 250.865 7.56306C250.813 7.52966 250.829 7.5266 250.847 7.56291C250.862 7.59237 250.848 7.59043 250.848 7.50828H248.848ZM252.161 9.91665L264.221 10.6066L264.336 8.60991L252.276 7.91991L252.161 9.91665ZM264.178 10.6032C266.51 10.8392 267.861 11.6246 268.643 12.5543C269.435 13.4966 269.758 14.7251 269.758 16.0583H271.758C271.758 14.4214 271.362 12.68 270.174 11.2672C268.975 9.84195 267.087 8.88737 264.379 8.61336L264.178 10.6032ZM269.758 16.0583C269.758 17.6202 269.206 18.9176 268.128 19.8398C267.034 20.7763 265.289 21.4183 262.748 21.4183V23.4183C265.608 23.4183 267.868 22.6953 269.429 21.3592C271.006 20.009 271.758 18.1264 271.758 16.0583H269.758ZM262.748 21.4183H253.058V23.4183H262.748V21.4183ZM253.058 21.4183C248.285 21.4183 245.692 19.8954 244.668 17.653L242.849 18.4836C244.345 21.7611 247.932 23.4183 253.058 23.4183V21.4183ZM244.248 18.94L249.318 16.09L248.338 14.3466L243.268 17.1966L244.248 18.94ZM247.934 15.6655C248.468 16.7332 249.143 17.4988 250.076 17.9652C250.976 18.415 252.004 18.5283 253.118 18.5283V16.5283C252.103 16.5283 251.451 16.4166 250.971 16.1764C250.523 15.9527 250.119 15.5633 249.723 14.7711L247.934 15.6655ZM253.118 18.5283H262.808V16.5283H253.118V18.5283ZM262.808 18.5283C263.722 18.5283 264.575 18.4065 265.229 18.0243C265.974 17.5892 266.358 16.877 266.358 16.0283H264.358C264.358 16.1437 264.336 16.1906 264.328 16.2046C264.321 16.2167 264.3 16.2507 264.22 16.2973C264.027 16.4101 263.605 16.5283 262.808 16.5283V18.5283ZM266.358 16.0283C266.358 15.6588 266.291 15.2863 266.114 14.9384C265.934 14.5863 265.671 14.3151 265.364 14.1112C264.789 13.73 264.033 13.5684 263.258 13.4754L263.019 15.4612C263.744 15.5482 264.098 15.6715 264.258 15.7779C264.318 15.8177 264.329 15.8409 264.331 15.8459C264.336 15.8552 264.358 15.9027 264.358 16.0283H266.358ZM263.206 13.4706L250.786 12.6306L250.651 14.626L263.071 15.466L263.206 13.4706ZM250.827 12.6342C248.656 12.3976 247.35 11.6916 246.583 10.8481C245.816 10.0045 245.478 8.90257 245.478 7.65828H243.478C243.478 9.26399 243.92 10.8921 245.103 12.1935C246.287 13.4949 248.101 14.349 250.61 14.6224L250.827 12.6342ZM245.478 7.65828C245.478 6.03075 246.034 4.7435 247.123 3.84217C248.236 2.91952 250.033 2.29828 252.698 2.29828V0.298281C249.753 0.298281 247.44 0.98204 245.847 2.30189C244.227 3.64306 243.478 5.53581 243.478 7.65828H245.478ZM252.698 2.29828H261.968V0.298281H252.698V2.29828ZM261.968 2.29828C266.1 2.29828 268.484 3.48143 269.628 5.18571L271.289 4.07085C269.613 1.57513 266.417 0.298281 261.968 0.298281V2.29828ZM280.053 22.2383V23.2383H281.053V22.2383H280.053ZM274.203 22.2383H273.203V23.2383H274.203V22.2383ZM274.203 1.47828V0.47828H273.203V1.47828H274.203ZM280.053 1.47828H281.053V0.47828H280.053V1.47828ZM280.053 21.2383H274.203V23.2383H280.053V21.2383ZM275.203 22.2383V1.47828H273.203V22.2383H275.203ZM274.203 2.47828H280.053V0.47828H274.203V2.47828ZM279.053 1.47828V22.2383H281.053V1.47828H279.053ZM311.81 3.93828L312.584 4.57121L313.17 3.85504L312.501 3.21564L311.81 3.93828ZM308.45 8.04828L307.752 8.76406L308.533 9.5265L309.224 8.68121L308.45 8.04828ZM289.22 11.8583H288.22L288.22 11.8673L289.22 11.8583ZM308.45 15.6383L309.226 15.0081L308.527 14.1467L307.743 14.9312L308.45 15.6383ZM311.81 19.7783L312.495 20.5068L313.172 19.87L312.586 19.1481L311.81 19.7783ZM311.036 3.30535L307.676 7.41535L309.224 8.68121L312.584 4.57121L311.036 3.30535ZM309.148 7.3325C307.631 5.85182 305.674 5.51828 303.41 5.51828V7.51828C305.526 7.51828 306.809 7.84474 307.752 8.76406L309.148 7.3325ZM303.41 5.51828H294.98V7.51828H303.41V5.51828ZM294.98 5.51828C292.973 5.51828 291.262 6.07124 290.046 7.20398C288.82 8.34521 288.22 9.96023 288.22 11.8283H290.22C290.22 10.3963 290.669 9.35635 291.409 8.66758C292.158 7.97032 293.327 7.51828 294.98 7.51828V5.51828ZM288.22 11.8283V11.8583H290.22V11.8283H288.22ZM288.22 11.8673C288.237 13.7455 288.844 15.3641 290.067 16.5074C291.282 17.6439 292.985 18.1983 294.98 18.1983V16.1983C293.345 16.1983 292.183 15.7477 291.433 15.0466C290.691 14.3525 290.233 13.3011 290.22 11.8493L288.22 11.8673ZM294.98 18.1983H303.41V16.1983H294.98V18.1983ZM303.41 18.1983C305.846 18.1983 307.707 17.7957 309.157 16.3454L307.743 14.9312C306.853 15.8209 305.654 16.1983 303.41 16.1983V18.1983ZM307.673 16.2684L311.033 20.4085L312.586 19.1481L309.226 15.0081L307.673 16.2684ZM311.125 19.0498C309.372 20.6983 307.174 21.4183 303.41 21.4183V23.4183C307.446 23.4183 310.228 22.6383 312.495 20.5068L311.125 19.0498ZM303.41 21.4183H294.98V23.4183H303.41V21.4183ZM294.98 21.4183C291.547 21.4183 288.95 20.4588 287.22 18.8477C285.498 17.2445 284.52 14.8897 284.52 11.8583H282.52C282.52 15.3368 283.656 18.262 285.857 20.3114C288.049 22.3527 291.183 23.4183 294.98 23.4183V21.4183ZM284.52 11.8583V11.8283H282.52V11.8583H284.52ZM284.52 11.8283C284.52 8.79708 285.498 6.45067 287.219 4.85527C288.948 3.25131 291.545 2.29828 294.98 2.29828V0.298281C291.185 0.298281 288.052 1.35526 285.859 3.38879C283.657 5.43089 282.52 8.34948 282.52 11.8283H284.52ZM294.98 2.29828H303.41V0.298281H294.98V2.29828ZM303.41 2.29828C307.045 2.29828 309.317 2.93788 311.119 4.66092L312.501 3.21564C310.162 0.978674 307.274 0.298281 303.41 0.298281V2.29828ZM330.668 1.47828L331.382 0.778033L331.088 0.47828H330.668V1.47828ZM341.438 12.4583L340.724 13.1585L341.438 13.8863L342.152 13.1585L341.438 12.4583ZM352.208 1.47828V0.47828H351.788L351.494 0.778033L352.208 1.47828ZM357.638 1.47828H358.638V0.47828H357.638V1.47828ZM357.638 22.2383V23.2383H358.638V22.2383H357.638ZM351.878 22.2383H350.878V23.2383H351.878V22.2383ZM351.878 9.60828H352.878V7.16019L351.164 8.90814L351.878 9.60828ZM342.788 18.8783V19.8783H343.208L343.502 19.5784L342.788 18.8783ZM340.088 18.8783L339.374 19.5784L339.668 19.8783H340.088V18.8783ZM330.998 9.60828L331.712 8.90814L329.998 7.16019V9.60828H330.998ZM330.998 22.2383V23.2383H331.998V22.2383H330.998ZM325.238 22.2383H324.238V23.2383H325.238V22.2383ZM325.238 1.47828V0.47828H324.238V1.47828H325.238ZM329.954 2.17853L340.724 13.1585L342.152 11.758L331.382 0.778033L329.954 2.17853ZM342.152 13.1585L352.922 2.17853L351.494 0.778033L340.724 11.758L342.152 13.1585ZM352.208 2.47828H357.638V0.47828H352.208V2.47828ZM356.638 1.47828V22.2383H358.638V1.47828H356.638ZM357.638 21.2383H351.878V23.2383H357.638V21.2383ZM352.878 22.2383V9.60828H350.878V22.2383H352.878ZM351.164 8.90814L342.074 18.1781L343.502 19.5784L352.592 10.3084L351.164 8.90814ZM342.788 17.8783H340.088V19.8783H342.788V17.8783ZM340.802 18.1781L331.712 8.90814L330.284 10.3084L339.374 19.5784L340.802 18.1781ZM329.998 9.60828V22.2383H331.998V9.60828H329.998ZM330.998 21.2383H325.238V23.2383H330.998V21.2383ZM326.238 22.2383V1.47828H324.238V22.2383H326.238ZM325.238 2.47828H330.668V0.47828H325.238V2.47828ZM362.387 1.47828V0.47828H361.387V1.47828H362.387ZM387.107 1.47828H388.107V0.47828H387.107V1.47828ZM387.107 6.48828V7.48828H388.107V6.48828H387.107ZM368.087 6.48828V5.48828H367.087V6.48828H368.087ZM368.087 9.39828H367.087V10.3983H368.087V9.39828ZM385.007 9.39828H386.007V8.39828H385.007V9.39828ZM385.007 14.3183V15.3183H386.007V14.3183H385.007ZM368.087 14.3183V13.3183H367.087V14.3183H368.087ZM368.087 17.1983H367.087V18.1983H368.087V17.1983ZM387.107 17.1983H388.107V16.1983H387.107V17.1983ZM387.107 22.2383V23.2383H388.107V22.2383H387.107ZM362.387 22.2383H361.387V23.2383H362.387V22.2383ZM362.387 2.47828H387.107V0.47828H362.387V2.47828ZM386.107 1.47828V6.48828H388.107V1.47828H386.107ZM387.107 5.48828H368.087V7.48828H387.107V5.48828ZM367.087 6.48828V9.39828H369.087V6.48828H367.087ZM368.087 10.3983H385.007V8.39828H368.087V10.3983ZM384.007 9.39828V14.3183H386.007V9.39828H384.007ZM385.007 13.3183H368.087V15.3183H385.007V13.3183ZM367.087 14.3183V17.1983H369.087V14.3183H367.087ZM368.087 18.1983H387.107V16.1983H368.087V18.1983ZM386.107 17.1983V22.2383H388.107V17.1983H386.107ZM387.107 21.2383H362.387V23.2383H387.107V21.2383ZM363.387 22.2383V1.47828H361.387V22.2383H363.387ZM391.156 1.47828V0.47828H390.156V1.47828H391.156ZM415.876 1.47828H416.876V0.47828H415.876V1.47828ZM415.876 6.48828V7.48828H416.876V6.48828H415.876ZM396.856 6.48828V5.48828H395.856V6.48828H396.856ZM396.856 9.39828H395.856V10.3983H396.856V9.39828ZM413.776 9.39828H414.776V8.39828H413.776V9.39828ZM413.776 14.3183V15.3183H414.776V14.3183H413.776ZM396.856 14.3183V13.3183H395.856V14.3183H396.856ZM396.856 17.1983H395.856V18.1983H396.856V17.1983ZM415.876 17.1983H416.876V16.1983H415.876V17.1983ZM415.876 22.2383V23.2383H416.876V22.2383H415.876ZM391.156 22.2383H390.156V23.2383H391.156V22.2383ZM391.156 2.47828H415.876V0.47828H391.156V2.47828ZM414.876 1.47828V6.48828H416.876V1.47828H414.876ZM415.876 5.48828H396.856V7.48828H415.876V5.48828ZM395.856 6.48828V9.39828H397.856V6.48828H395.856ZM396.856 10.3983H413.776V8.39828H396.856V10.3983ZM412.776 9.39828V14.3183H414.776V9.39828H412.776ZM413.776 13.3183H396.856V15.3183H413.776V13.3183ZM395.856 14.3183V17.1983H397.856V14.3183H395.856ZM396.856 18.1983H415.876V16.1983H396.856V18.1983ZM414.876 17.1983V22.2383H416.876V17.1983H414.876ZM415.876 21.2383H391.156V23.2383H415.876V21.2383ZM392.156 22.2383V1.47828H390.156V22.2383H392.156ZM418.486 1.47828V0.47828H417.486V1.47828H418.486ZM444.736 1.47828H445.736V0.47828H444.736V1.47828ZM444.736 6.84828V7.84828H445.736V6.84828H444.736ZM434.536 6.84828V5.84828H433.536V6.84828H434.536ZM434.536 22.2383V23.2383H435.536V22.2383H434.536ZM428.686 22.2383H427.686V23.2383H428.686V22.2383ZM428.686 6.84828H429.686V5.84828H428.686V6.84828ZM418.486 6.84828H417.486V7.84828H418.486V6.84828ZM418.486 2.47828H444.736V0.47828H418.486V2.47828ZM443.736 1.47828V6.84828H445.736V1.47828H443.736ZM444.736 5.84828H434.536V7.84828H444.736V5.84828ZM433.536 6.84828V22.2383H435.536V6.84828H433.536ZM434.536 21.2383H428.686V23.2383H434.536V21.2383ZM429.686 22.2383V6.84828H427.686V22.2383H429.686ZM428.686 5.84828H418.486V7.84828H428.686V5.84828ZM419.486 6.84828V1.47828H417.486V6.84828H419.486ZM473.251 4.62828L473.823 5.44907L474.63 4.88731L474.082 4.07085L473.251 4.62828ZM468.811 7.71828L468.038 8.3526L468.624 9.0668L469.383 8.53907L468.811 7.71828ZM455.011 8.91828L454.885 9.91031L454.92 9.91467L454.954 9.91665L455.011 8.91828ZM467.071 9.60828L467.172 8.61336L467.15 8.61116L467.128 8.60991L467.071 9.60828ZM446.551 18.0683L446.061 17.1966L445.26 17.6471L445.642 18.4836L446.551 18.0683ZM451.621 15.2183L452.516 14.7711L452.046 13.8322L451.131 14.3466L451.621 15.2183ZM465.931 14.4683L466.051 13.4754L466.025 13.4723L465.999 13.4706L465.931 14.4683ZM453.511 13.6283L453.403 14.6224L453.423 14.6246L453.444 14.626L453.511 13.6283ZM472.68 3.80749L468.24 6.89749L469.383 8.53907L473.823 5.44907L472.68 3.80749ZM469.584 7.08396C469.005 6.37744 468.343 5.87845 467.496 5.57364C466.68 5.27978 465.75 5.18828 464.671 5.18828V7.18828C465.662 7.18828 466.323 7.27678 466.819 7.45542C467.285 7.62312 467.658 7.88912 468.038 8.3526L469.584 7.08396ZM464.671 5.18828H455.221V7.18828H464.671V5.18828ZM455.221 5.18828C454.354 5.18828 453.528 5.29601 452.883 5.61333C452.548 5.77778 452.23 6.01447 451.995 6.35169C451.755 6.69753 451.641 7.09489 451.641 7.50828H453.641C453.641 7.47167 453.648 7.47903 453.638 7.493C453.634 7.49834 453.657 7.46128 453.765 7.40823C454.004 7.29055 454.468 7.18828 455.221 7.18828V5.18828ZM451.641 7.50828C451.641 7.80114 451.688 8.13294 451.852 8.45959C452.019 8.79309 452.273 9.05065 452.577 9.246C453.136 9.60467 453.924 9.78825 454.885 9.91031L455.137 7.92625C454.209 7.80831 453.812 7.66189 453.658 7.56306C453.606 7.52966 453.622 7.5266 453.64 7.56291C453.655 7.59237 453.641 7.59043 453.641 7.50828H451.641ZM454.954 9.91665L467.014 10.6066L467.128 8.60991L455.068 7.91991L454.954 9.91665ZM466.971 10.6032C469.303 10.8392 470.654 11.6246 471.436 12.5543C472.228 13.4966 472.551 14.7251 472.551 16.0583H474.551C474.551 14.4214 474.155 12.68 472.967 11.2672C471.768 9.84195 469.88 8.88737 467.172 8.61336L466.971 10.6032ZM472.551 16.0583C472.551 17.6202 471.999 18.9176 470.921 19.8398C469.827 20.7763 468.082 21.4183 465.541 21.4183V23.4183C468.401 23.4183 470.661 22.6953 472.222 21.3592C473.799 20.009 474.551 18.1264 474.551 16.0583H472.551ZM465.541 21.4183H455.851V23.4183H465.541V21.4183ZM455.851 21.4183C451.078 21.4183 448.485 19.8954 447.461 17.653L445.642 18.4836C447.138 21.7611 450.725 23.4183 455.851 23.4183V21.4183ZM447.041 18.94L452.111 16.09L451.131 14.3466L446.061 17.1966L447.041 18.94ZM450.727 15.6655C451.261 16.7332 451.936 17.4988 452.869 17.9652C453.769 18.415 454.797 18.5283 455.911 18.5283V16.5283C454.896 16.5283 454.244 16.4166 453.764 16.1764C453.316 15.9527 452.912 15.5633 452.516 14.7711L450.727 15.6655ZM455.911 18.5283H465.601V16.5283H455.911V18.5283ZM465.601 18.5283C466.515 18.5283 467.368 18.4065 468.022 18.0243C468.767 17.5892 469.151 16.877 469.151 16.0283H467.151C467.151 16.1437 467.129 16.1906 467.121 16.2046C467.114 16.2167 467.093 16.2507 467.013 16.2973C466.82 16.4101 466.398 16.5283 465.601 16.5283V18.5283ZM469.151 16.0283C469.151 15.6588 469.084 15.2863 468.907 14.9384C468.727 14.5863 468.464 14.3151 468.157 14.1112C467.582 13.73 466.826 13.5684 466.051 13.4754L465.812 15.4612C466.537 15.5482 466.891 15.6715 467.051 15.7779C467.111 15.8177 467.122 15.8409 467.124 15.8459C467.129 15.8552 467.151 15.9027 467.151 16.0283H469.151ZM465.999 13.4706L453.579 12.6306L453.444 14.626L465.864 15.466L465.999 13.4706ZM453.62 12.6342C451.449 12.3976 450.143 11.6916 449.376 10.8481C448.609 10.0045 448.271 8.90257 448.271 7.65828H446.271C446.271 9.26399 446.713 10.8921 447.896 12.1935C449.08 13.4949 450.894 14.349 453.403 14.6224L453.62 12.6342ZM448.271 7.65828C448.271 6.03075 448.827 4.7435 449.915 3.84217C451.029 2.91952 452.826 2.29828 455.491 2.29828V0.298281C452.546 0.298281 450.233 0.98204 448.64 2.30189C447.02 3.64306 446.271 5.53581 446.271 7.65828H448.271ZM455.491 2.29828H464.761V0.298281H455.491V2.29828ZM464.761 2.29828C468.893 2.29828 471.277 3.48143 472.421 5.18571L474.082 4.07085C472.406 1.57513 469.21 0.298281 464.761 0.298281V2.29828ZM485.898 1.47828V0.47828H484.898V1.47828H485.898ZM512.148 1.47828H513.148V0.47828H512.148V1.47828ZM512.148 6.84828V7.84828H513.148V6.84828H512.148ZM501.948 6.84828V5.84828H500.948V6.84828H501.948ZM501.948 22.2383V23.2383H502.948V22.2383H501.948ZM496.098 22.2383H495.098V23.2383H496.098V22.2383ZM496.098 6.84828H497.098V5.84828H496.098V6.84828ZM485.898 6.84828H484.898V7.84828H485.898V6.84828ZM485.898 2.47828H512.148V0.47828H485.898V2.47828ZM511.148 1.47828V6.84828H513.148V1.47828H511.148ZM512.148 5.84828H501.948V7.84828H512.148V5.84828ZM500.948 6.84828V22.2383H502.948V6.84828H500.948ZM501.948 21.2383H496.098V23.2383H501.948V21.2383ZM497.098 22.2383V6.84828H495.098V22.2383H497.098ZM496.098 5.84828H485.898V7.84828H496.098V5.84828ZM486.898 6.84828V1.47828H484.898V6.84828H486.898ZM521.283 9.27828H520.283V10.2783H521.283V9.27828ZM537.933 9.27828V10.2783H538.933V9.27828H537.933ZM537.933 1.47828V0.47828H536.933V1.47828H537.933ZM543.784 1.47828H544.784V0.47828H543.784V1.47828ZM543.784 22.2383V23.2383H544.784V22.2383H543.784ZM537.933 22.2383H536.933V23.2383H537.933V22.2383ZM537.933 14.4383H538.933V13.4383H537.933V14.4383ZM521.283 14.4383V13.4383H520.283V14.4383H521.283ZM521.283 22.2383V23.2383H522.283V22.2383H521.283ZM515.433 22.2383H514.433V23.2383H515.433V22.2383ZM515.433 1.47828V0.47828H514.433V1.47828H515.433ZM521.283 1.47828H522.283V0.47828H521.283V1.47828ZM521.283 10.2783H537.933V8.27828H521.283V10.2783ZM538.933 9.27828V1.47828H536.933V9.27828H538.933ZM537.933 2.47828H543.784V0.47828H537.933V2.47828ZM542.784 1.47828V22.2383H544.784V1.47828H542.784ZM543.784 21.2383H537.933V23.2383H543.784V21.2383ZM538.933 22.2383V14.4383H536.933V22.2383H538.933ZM537.933 13.4383H521.283V15.4383H537.933V13.4383ZM520.283 14.4383V22.2383H522.283V14.4383H520.283ZM521.283 21.2383H515.433V23.2383H521.283V21.2383ZM516.433 22.2383V1.47828H514.433V22.2383H516.433ZM515.433 2.47828H521.283V0.47828H515.433V2.47828ZM520.283 1.47828V9.27828H522.283V1.47828H520.283ZM548.48 1.47828V0.47828H547.48V1.47828H548.48ZM573.2 1.47828H574.2V0.47828H573.2V1.47828ZM573.2 6.48828V7.48828H574.2V6.48828H573.2ZM554.18 6.48828V5.48828H553.18V6.48828H554.18ZM554.18 9.39828H553.18V10.3983H554.18V9.39828ZM571.1 9.39828H572.1V8.39828H571.1V9.39828ZM571.1 14.3183V15.3183H572.1V14.3183H571.1ZM554.18 14.3183V13.3183H553.18V14.3183H554.18ZM554.18 17.1983H553.18V18.1983H554.18V17.1983ZM573.2 17.1983H574.2V16.1983H573.2V17.1983ZM573.2 22.2383V23.2383H574.2V22.2383H573.2ZM548.48 22.2383H547.48V23.2383H548.48V22.2383ZM548.48 2.47828H573.2V0.47828H548.48V2.47828ZM572.2 1.47828V6.48828H574.2V1.47828H572.2ZM573.2 5.48828H554.18V7.48828H573.2V5.48828ZM553.18 6.48828V9.39828H555.18V6.48828H553.18ZM554.18 10.3983H571.1V8.39828H554.18V10.3983ZM570.1 9.39828V14.3183H572.1V9.39828H570.1ZM571.1 13.3183H554.18V15.3183H571.1V13.3183ZM553.18 14.3183V17.1983H555.18V14.3183H553.18ZM554.18 18.1983H573.2V16.1983H554.18V18.1983ZM572.2 17.1983V22.2383H574.2V17.1983H572.2ZM573.2 21.2383H548.48V23.2383H573.2V21.2383ZM549.48 22.2383V1.47828H547.48V22.2383H549.48ZM614.652 3.93828L615.426 4.57121L616.011 3.85504L615.343 3.21564L614.652 3.93828ZM611.292 8.04828L610.593 8.76406L611.375 9.5265L612.066 8.68121L611.292 8.04828ZM592.062 11.8583H591.062L591.062 11.8673L592.062 11.8583ZM611.292 15.6383L612.068 15.0081L611.369 14.1467L610.585 14.9312L611.292 15.6383ZM614.652 19.7783L615.337 20.5068L616.014 19.87L615.428 19.1481L614.652 19.7783ZM613.878 3.30535L610.517 7.41535L612.066 8.68121L615.426 4.57121L613.878 3.30535ZM611.99 7.3325C610.472 5.85182 608.516 5.51828 606.252 5.51828V7.51828C608.368 7.51828 609.651 7.84474 610.593 8.76406L611.99 7.3325ZM606.252 5.51828H597.822V7.51828H606.252V5.51828ZM597.822 5.51828C595.814 5.51828 594.104 6.07124 592.888 7.20398C591.662 8.34521 591.062 9.96023 591.062 11.8283H593.062C593.062 10.3963 593.511 9.35635 594.251 8.66758C594.999 7.97032 596.169 7.51828 597.822 7.51828V5.51828ZM591.062 11.8283V11.8583H593.062V11.8283H591.062ZM591.062 11.8673C591.079 13.7455 591.686 15.3641 592.909 16.5074C594.124 17.6439 595.827 18.1983 597.822 18.1983V16.1983C596.187 16.1983 595.024 15.7477 594.275 15.0466C593.532 14.3525 593.075 13.3011 593.062 11.8493L591.062 11.8673ZM597.822 18.1983H606.252V16.1983H597.822V18.1983ZM606.252 18.1983C608.688 18.1983 610.548 17.7957 611.999 16.3454L610.585 14.9312C609.695 15.8209 608.495 16.1983 606.252 16.1983V18.1983ZM610.515 16.2684L613.875 20.4085L615.428 19.1481L612.068 15.0081L610.515 16.2684ZM613.967 19.0498C612.213 20.6983 610.016 21.4183 606.252 21.4183V23.4183C610.288 23.4183 613.07 22.6383 615.337 20.5068L613.967 19.0498ZM606.252 21.4183H597.822V23.4183H606.252V21.4183ZM597.822 21.4183C594.389 21.4183 591.792 20.4588 590.062 18.8477C588.34 17.2445 587.362 14.8897 587.362 11.8583H585.362C585.362 15.3368 586.498 18.262 588.699 20.3114C590.891 22.3527 594.024 23.4183 597.822 23.4183V21.4183ZM587.362 11.8583V11.8283H585.362V11.8583H587.362ZM587.362 11.8283C587.362 8.79708 588.34 6.45067 590.06 4.85527C591.79 3.25131 594.387 2.29828 597.822 2.29828V0.298281C594.026 0.298281 590.893 1.35526 588.7 3.38879C586.498 5.43089 585.362 8.34948 585.362 11.8283H587.362ZM597.822 2.29828H606.252V0.298281H597.822V2.29828ZM606.252 2.29828C609.887 2.29828 612.159 2.93788 613.96 4.66092L615.343 3.21564C613.004 0.978674 610.116 0.298281 606.252 0.298281V2.29828ZM627.968 2.29828H637.298V0.298281H627.968V2.29828ZM637.298 2.29828C640.733 2.29828 643.33 3.25131 645.059 4.85527C646.78 6.45067 647.758 8.79708 647.758 11.8283H649.758C649.758 8.34948 648.621 5.43089 646.419 3.38879C644.227 1.35526 641.094 0.298281 637.298 0.298281V2.29828ZM647.758 11.8283V11.8583H649.758V11.8283H647.758ZM647.758 11.8583C647.758 14.8897 646.78 17.2445 645.058 18.8477C643.328 20.4588 640.731 21.4183 637.298 21.4183V23.4183C641.095 23.4183 644.229 22.3527 646.421 20.3114C648.622 18.262 649.758 15.3368 649.758 11.8583H647.758ZM637.298 21.4183H627.968V23.4183H637.298V21.4183ZM627.968 21.4183C624.535 21.4183 621.939 20.4588 620.208 18.8477C618.487 17.2445 617.508 14.8897 617.508 11.8583H615.508C615.508 15.3368 616.645 18.262 618.845 20.3114C621.038 22.3527 624.171 23.4183 627.968 23.4183V21.4183ZM617.508 11.8583V11.8283H615.508V11.8583H617.508ZM617.508 11.8283C617.508 8.79708 618.487 6.45067 620.207 4.85527C621.937 3.25131 624.534 2.29828 627.968 2.29828V0.298281C624.173 0.298281 621.04 1.35526 618.847 3.38879C616.645 5.43089 615.508 8.34948 615.508 11.8283H617.508ZM627.968 18.1983H637.298V16.1983H627.968V18.1983ZM637.298 18.1983C639.405 18.1983 641.128 17.6329 642.325 16.4728C643.527 15.309 644.058 13.684 644.058 11.8583H642.058C642.058 13.3025 641.645 14.3476 640.934 15.0362C640.219 15.7287 639.061 16.1983 637.298 16.1983V18.1983ZM644.058 11.8583V11.8283H642.058V11.8583H644.058ZM644.058 11.8283C644.058 10.0151 643.525 8.39774 642.324 7.23859C641.127 6.08365 639.405 5.51828 637.298 5.51828V7.51828C639.061 7.51828 640.22 7.98791 640.935 8.67797C641.646 9.36382 642.058 10.4014 642.058 11.8283H644.058ZM637.298 5.51828H627.968V7.51828H637.298V5.51828ZM627.968 5.51828C625.861 5.51828 624.14 6.08365 622.943 7.23859C621.741 8.39774 621.208 10.0151 621.208 11.8283H623.208C623.208 10.4014 623.62 9.36382 624.331 8.67797C625.047 7.98791 626.205 7.51828 627.968 7.51828V5.51828ZM621.208 11.8283V11.8583H623.208V11.8283H621.208ZM621.208 11.8583C621.208 13.684 621.74 15.309 622.941 16.4728C624.139 17.6329 625.861 18.1983 627.968 18.1983V16.1983C626.205 16.1983 625.048 15.7287 624.333 15.0362C623.622 14.3476 623.208 13.3025 623.208 11.8583H621.208ZM677.509 4.62828L678.08 5.44907L678.888 4.88731L678.339 4.07085L677.509 4.62828ZM673.069 7.71828L672.296 8.3526L672.882 9.0668L673.64 8.53907L673.069 7.71828ZM659.269 8.91828L659.143 9.91031L659.178 9.91467L659.212 9.91665L659.269 8.91828ZM671.329 9.60828L671.43 8.61336L671.408 8.61116L671.386 8.60991L671.329 9.60828ZM650.809 18.0683L650.319 17.1966L649.518 17.6471L649.899 18.4836L650.809 18.0683ZM655.879 15.2183L656.774 14.7711L656.304 13.8322L655.389 14.3466L655.879 15.2183ZM670.189 14.4683L670.308 13.4754L670.283 13.4723L670.257 13.4706L670.189 14.4683ZM657.769 13.6283L657.661 14.6224L657.681 14.6246L657.702 14.626L657.769 13.6283ZM676.938 3.80749L672.498 6.89749L673.64 8.53907L678.08 5.44907L676.938 3.80749ZM673.842 7.08396C673.263 6.37744 672.601 5.87845 671.754 5.57364C670.938 5.27978 670.008 5.18828 668.929 5.18828V7.18828C669.92 7.18828 670.581 7.27678 671.077 7.45542C671.543 7.62312 671.916 7.88912 672.296 8.3526L673.842 7.08396ZM668.929 5.18828H659.479V7.18828H668.929V5.18828ZM659.479 5.18828C658.612 5.18828 657.786 5.29601 657.141 5.61333C656.806 5.77778 656.488 6.01447 656.253 6.35169C656.013 6.69753 655.899 7.09489 655.899 7.50828H657.899C657.899 7.47167 657.905 7.47903 657.896 7.493C657.892 7.49834 657.915 7.46128 658.023 7.40823C658.262 7.29055 658.726 7.18828 659.479 7.18828V5.18828ZM655.899 7.50828C655.899 7.80114 655.946 8.13294 656.11 8.45959C656.277 8.79309 656.531 9.05065 656.835 9.246C657.394 9.60467 658.182 9.78825 659.143 9.91031L659.395 7.92625C658.466 7.80831 658.07 7.66189 657.916 7.56306C657.864 7.52966 657.879 7.5266 657.898 7.56291C657.912 7.59237 657.899 7.59043 657.899 7.50828H655.899ZM659.212 9.91665L671.272 10.6066L671.386 8.60991L659.326 7.91991L659.212 9.91665ZM671.229 10.6032C673.561 10.8392 674.912 11.6246 675.694 12.5543C676.486 13.4966 676.809 14.7251 676.809 16.0583H678.809C678.809 14.4214 678.412 12.68 677.225 11.2672C676.026 9.84195 674.138 8.88737 671.43 8.61336L671.229 10.6032ZM676.809 16.0583C676.809 17.6202 676.256 18.9176 675.179 19.8398C674.085 20.7763 672.34 21.4183 669.799 21.4183V23.4183C672.658 23.4183 674.919 22.6953 676.479 21.3592C678.057 20.009 678.809 18.1264 678.809 16.0583H676.809ZM669.799 21.4183H660.109V23.4183H669.799V21.4183ZM660.109 21.4183C655.335 21.4183 652.743 19.8954 651.719 17.653L649.899 18.4836C651.396 21.7611 654.983 23.4183 660.109 23.4183V21.4183ZM651.299 18.94L656.369 16.09L655.389 14.3466L650.319 17.1966L651.299 18.94ZM654.985 15.6655C655.519 16.7332 656.194 17.4988 657.127 17.9652C658.027 18.415 659.054 18.5283 660.169 18.5283V16.5283C659.154 16.5283 658.502 16.4166 658.021 16.1764C657.574 15.9527 657.17 15.5633 656.774 14.7711L654.985 15.6655ZM660.169 18.5283H669.859V16.5283H660.169V18.5283ZM669.859 18.5283C670.772 18.5283 671.625 18.4065 672.28 18.0243C673.025 17.5892 673.409 16.877 673.409 16.0283H671.409C671.409 16.1437 671.386 16.1906 671.379 16.2046C671.372 16.2167 671.351 16.2507 671.271 16.2973C671.078 16.4101 670.656 16.5283 669.859 16.5283V18.5283ZM673.409 16.0283C673.409 15.6588 673.341 15.2863 673.164 14.9384C672.985 14.5863 672.722 14.3151 672.414 14.1112C671.84 13.73 671.083 13.5684 670.308 13.4754L670.07 15.4612C670.795 15.5482 671.149 15.6715 671.309 15.7779C671.369 15.8177 671.38 15.8409 671.382 15.8459C671.387 15.8552 671.409 15.9027 671.409 16.0283H673.409ZM670.257 13.4706L657.837 12.6306L657.702 14.626L670.122 15.466L670.257 13.4706ZM657.878 12.6342C655.706 12.3976 654.401 11.6916 653.634 10.8481C652.867 10.0045 652.529 8.90257 652.529 7.65828H650.529C650.529 9.26399 650.971 10.8921 652.154 12.1935C653.337 13.4949 655.152 14.349 657.661 14.6224L657.878 12.6342ZM652.529 7.65828C652.529 6.03075 653.085 4.7435 654.173 3.84217C655.287 2.91952 657.084 2.29828 659.749 2.29828V0.298281C656.804 0.298281 654.491 0.98204 652.898 2.30189C651.278 3.64306 650.529 5.53581 650.529 7.65828H652.529ZM659.749 2.29828H669.019V0.298281H659.749V2.29828ZM669.019 2.29828C673.151 2.29828 675.535 3.48143 676.679 5.18571L678.339 4.07085C676.664 1.57513 673.467 0.298281 669.019 0.298281V2.29828ZM686.684 1.47828L687.398 0.778033L687.104 0.47828H686.684V1.47828ZM697.454 12.4583L696.74 13.1585L697.454 13.8863L698.168 13.1585L697.454 12.4583ZM708.224 1.47828V0.47828H707.804L707.51 0.778033L708.224 1.47828ZM713.654 1.47828H714.654V0.47828H713.654V1.47828ZM713.654 22.2383V23.2383H714.654V22.2383H713.654ZM707.894 22.2383H706.894V23.2383H707.894V22.2383ZM707.894 9.60828H708.894V7.16019L707.18 8.90814L707.894 9.60828ZM698.804 18.8783V19.8783H699.224L699.518 19.5784L698.804 18.8783ZM696.104 18.8783L695.39 19.5784L695.684 19.8783H696.104V18.8783ZM687.014 9.60828L687.728 8.90814L686.014 7.16019V9.60828H687.014ZM687.014 22.2383V23.2383H688.014V22.2383H687.014ZM681.254 22.2383H680.254V23.2383H681.254V22.2383ZM681.254 1.47828V0.47828H680.254V1.47828H681.254ZM685.97 2.17853L696.74 13.1585L698.168 11.758L687.398 0.778033L685.97 2.17853ZM698.168 13.1585L708.938 2.17853L707.51 0.778033L696.74 11.758L698.168 13.1585ZM708.224 2.47828H713.654V0.47828H708.224V2.47828ZM712.654 1.47828V22.2383H714.654V1.47828H712.654ZM713.654 21.2383H707.894V23.2383H713.654V21.2383ZM708.894 22.2383V9.60828H706.894V22.2383H708.894ZM707.18 8.90814L698.09 18.1781L699.518 19.5784L708.608 10.3084L707.18 8.90814ZM698.804 17.8783H696.104V19.8783H698.804V17.8783ZM696.818 18.1781L687.728 8.90814L686.3 10.3084L695.39 19.5784L696.818 18.1781ZM686.014 9.60828V22.2383H688.014V9.60828H686.014ZM687.014 21.2383H681.254V23.2383H687.014V21.2383ZM682.254 22.2383V1.47828H680.254V22.2383H682.254ZM681.254 2.47828H686.684V0.47828H681.254V2.47828ZM728.632 2.29828H737.962V0.298281H728.632V2.29828ZM737.962 2.29828C741.397 2.29828 743.994 3.25131 745.724 4.85527C747.444 6.45067 748.422 8.79708 748.422 11.8283H750.422C750.422 8.34948 749.286 5.43089 747.083 3.38879C744.891 1.35526 741.758 0.298281 737.962 0.298281V2.29828ZM748.422 11.8283V11.8583H750.422V11.8283H748.422ZM748.422 11.8583C748.422 14.8897 747.444 17.2445 745.722 18.8477C743.992 20.4588 741.395 21.4183 737.962 21.4183V23.4183C741.759 23.4183 744.893 22.3527 747.085 20.3114C749.286 18.262 750.422 15.3368 750.422 11.8583H748.422ZM737.962 21.4183H728.632V23.4183H737.962V21.4183ZM728.632 21.4183C725.199 21.4183 722.603 20.4588 720.872 18.8477C719.151 17.2445 718.172 14.8897 718.172 11.8583H716.172C716.172 15.3368 717.309 18.262 719.51 20.3114C721.702 22.3527 724.835 23.4183 728.632 23.4183V21.4183ZM718.172 11.8583V11.8283H716.172V11.8583H718.172ZM718.172 11.8283C718.172 8.79708 719.151 6.45067 720.871 4.85527C722.601 3.25131 725.198 2.29828 728.632 2.29828V0.298281C724.837 0.298281 721.704 1.35526 719.511 3.38879C717.309 5.43089 716.172 8.34948 716.172 11.8283H718.172ZM728.632 18.1983H737.962V16.1983H728.632V18.1983ZM737.962 18.1983C740.069 18.1983 741.792 17.6329 742.989 16.4728C744.191 15.309 744.722 13.684 744.722 11.8583H742.722C742.722 13.3025 742.309 14.3476 741.598 15.0362C740.883 15.7287 739.725 16.1983 737.962 16.1983V18.1983ZM744.722 11.8583V11.8283H742.722V11.8583H744.722ZM744.722 11.8283C744.722 10.0151 744.189 8.39774 742.988 7.23859C741.791 6.08365 740.069 5.51828 737.962 5.51828V7.51828C739.725 7.51828 740.884 7.98791 741.599 8.67797C742.31 9.36382 742.722 10.4014 742.722 11.8283H744.722ZM737.962 5.51828H728.632V7.51828H737.962V5.51828ZM728.632 5.51828C726.525 5.51828 724.804 6.08365 723.607 7.23859C722.405 8.39774 721.872 10.0151 721.872 11.8283H723.872C723.872 10.4014 724.284 9.36382 724.995 8.67797C725.711 7.98791 726.869 7.51828 728.632 7.51828V5.51828ZM721.872 11.8283V11.8583H723.872V11.8283H721.872ZM721.872 11.8583C721.872 13.684 722.404 15.309 723.605 16.4728C724.803 17.6329 726.526 18.1983 728.632 18.1983V16.1983C726.869 16.1983 725.712 15.7287 724.997 15.0362C724.286 14.3476 723.872 13.3025 723.872 11.8583H721.872ZM778.173 4.62828L778.744 5.44907L779.552 4.88731L779.003 4.07085L778.173 4.62828ZM773.733 7.71828L772.96 8.3526L773.546 9.0668L774.304 8.53907L773.733 7.71828ZM759.933 8.91828L759.807 9.91031L759.842 9.91467L759.876 9.91665L759.933 8.91828ZM771.993 9.60828L772.094 8.61336L772.072 8.61116L772.05 8.60991L771.993 9.60828ZM751.473 18.0683L750.983 17.1966L750.182 17.6471L750.564 18.4836L751.473 18.0683ZM756.543 15.2183L757.438 14.7711L756.968 13.8322L756.053 14.3466L756.543 15.2183ZM770.853 14.4683L770.972 13.4754L770.947 13.4723L770.921 13.4706L770.853 14.4683ZM758.433 13.6283L758.325 14.6224L758.345 14.6246L758.366 14.626L758.433 13.6283ZM777.602 3.80749L773.162 6.89749L774.304 8.53907L778.744 5.44907L777.602 3.80749ZM774.506 7.08396C773.927 6.37744 773.265 5.87845 772.418 5.57364C771.602 5.27978 770.672 5.18828 769.593 5.18828V7.18828C770.584 7.18828 771.245 7.27678 771.741 7.45542C772.207 7.62312 772.58 7.88912 772.96 8.3526L774.506 7.08396ZM769.593 5.18828H760.143V7.18828H769.593V5.18828ZM760.143 5.18828C759.276 5.18828 758.45 5.29601 757.805 5.61333C757.47 5.77778 757.152 6.01447 756.917 6.35169C756.677 6.69753 756.563 7.09489 756.563 7.50828H758.563C758.563 7.47167 758.569 7.47903 758.56 7.493C758.556 7.49834 758.579 7.46128 758.687 7.40823C758.926 7.29055 759.39 7.18828 760.143 7.18828V5.18828ZM756.563 7.50828C756.563 7.80114 756.61 8.13294 756.774 8.45959C756.941 8.79309 757.195 9.05065 757.499 9.246C758.058 9.60467 758.846 9.78825 759.807 9.91031L760.059 7.92625C759.13 7.80831 758.734 7.66189 758.58 7.56306C758.528 7.52966 758.543 7.5266 758.562 7.56291C758.576 7.59237 758.563 7.59043 758.563 7.50828H756.563ZM759.876 9.91665L771.936 10.6066L772.05 8.60991L759.99 7.91991L759.876 9.91665ZM771.893 10.6032C774.225 10.8392 775.576 11.6246 776.358 12.5543C777.15 13.4966 777.473 14.7251 777.473 16.0583H779.473C779.473 14.4214 779.076 12.68 777.889 11.2672C776.69 9.84195 774.802 8.88737 772.094 8.61336L771.893 10.6032ZM777.473 16.0583C777.473 17.6202 776.92 18.9176 775.843 19.8398C774.749 20.7763 773.004 21.4183 770.463 21.4183V23.4183C773.323 23.4183 775.583 22.6953 777.143 21.3592C778.721 20.009 779.473 18.1264 779.473 16.0583H777.473ZM770.463 21.4183H760.773V23.4183H770.463V21.4183ZM760.773 21.4183C755.999 21.4183 753.407 19.8954 752.383 17.653L750.564 18.4836C752.06 21.7611 755.647 23.4183 760.773 23.4183V21.4183ZM751.963 18.94L757.033 16.09L756.053 14.3466L750.983 17.1966L751.963 18.94ZM755.649 15.6655C756.183 16.7332 756.858 17.4988 757.791 17.9652C758.691 18.415 759.718 18.5283 760.833 18.5283V16.5283C759.818 16.5283 759.166 16.4166 758.685 16.1764C758.238 15.9527 757.834 15.5633 757.438 14.7711L755.649 15.6655ZM760.833 18.5283H770.523V16.5283H760.833V18.5283ZM770.523 18.5283C771.436 18.5283 772.289 18.4065 772.944 18.0243C773.689 17.5892 774.073 16.877 774.073 16.0283H772.073C772.073 16.1437 772.05 16.1906 772.043 16.2046C772.036 16.2167 772.015 16.2507 771.935 16.2973C771.742 16.4101 771.32 16.5283 770.523 16.5283V18.5283ZM774.073 16.0283C774.073 15.6588 774.006 15.2863 773.828 14.9384C773.649 14.5863 773.386 14.3151 773.078 14.1112C772.504 13.73 771.747 13.5684 770.972 13.4754L770.734 15.4612C771.459 15.5482 771.813 15.6715 771.973 15.7779C772.033 15.8177 772.044 15.8409 772.046 15.8459C772.051 15.8552 772.073 15.9027 772.073 16.0283H774.073ZM770.921 13.4706L758.501 12.6306L758.366 14.626L770.786 15.466L770.921 13.4706ZM758.542 12.6342C756.37 12.3976 755.065 11.6916 754.298 10.8481C753.531 10.0045 753.193 8.90257 753.193 7.65828H751.193C751.193 9.26399 751.635 10.8921 752.818 12.1935C754.001 13.4949 755.816 14.349 758.325 14.6224L758.542 12.6342ZM753.193 7.65828C753.193 6.03075 753.749 4.7435 754.837 3.84217C755.951 2.91952 757.748 2.29828 760.413 2.29828V0.298281C757.468 0.298281 755.155 0.98204 753.562 2.30189C751.942 3.64306 751.193 5.53581 751.193 7.65828H753.193ZM760.413 2.29828H769.683V0.298281H760.413V2.29828ZM769.683 2.29828C773.815 2.29828 776.199 3.48143 777.343 5.18571L779.003 4.07085C777.328 1.57513 774.131 0.298281 769.683 0.298281V2.29828Z" fill="white" mask="url(#path-1-outside-1_95_1636)"/>
</svg>
