<svg width="198" height="30" viewBox="0 0 198 30" fill="none" xmlns="http://www.w3.org/2000/svg">
<g clip-path="url(#clip0_161_741)">
<path d="M12.7779 0.252247C7.95967 1.00982 3.85866 3.99972 1.67684 8.37346C0.0707794 11.5755 -0.313059 15.2421 0.606133 18.8381C2.02027 24.4139 6.73745 28.7371 12.5253 29.7573C13.5556 29.9391 16.3132 29.9492 99.0405 29.9492C179.212 29.9492 184.556 29.9391 185.404 29.7775C187 29.4745 188.091 29.1007 189.546 28.3836C191.263 27.525 192.354 26.7169 193.687 25.3331C195.788 23.1512 197.101 20.5553 197.647 17.525C197.869 16.2623 197.869 13.7876 197.636 12.4745C196.899 8.34316 194.525 4.73709 191.061 2.50477C189.576 1.54518 188.061 0.89871 186.162 0.423964L185.101 0.151236L99.3435 0.141136C30.8486 0.120934 13.4243 0.141136 12.7779 0.252247ZM13.6162 6.33306L13.5859 11.5654L13.3233 12.1209C12.788 13.2522 11.7374 14.0805 10.5253 14.3331C10.1819 14.4038 8.41421 14.4442 5.55563 14.4442H1.11118V14.1512C1.11118 13.9896 1.20209 13.3432 1.3031 12.7068C2.08088 8.18154 4.94957 4.40376 9.14149 2.41386C10.3839 1.8179 12.2728 1.27245 13.5657 1.12093C13.6061 1.11083 13.6263 3.46437 13.6162 6.33306ZM27.2526 7.7472L27.2223 14.3937H22.6263C18.0708 14.3937 18.0203 14.3937 17.4546 14.1613C16.3233 13.7068 15.5354 12.8785 15.1415 11.7472C14.9597 11.2118 14.9496 10.8684 14.9496 6.14114V1.11083H21.1112H27.2728L27.2526 7.7472ZM185.727 1.34315C191.424 2.73709 195.354 6.70679 196.586 12.3028C196.899 13.7068 196.899 16.2826 196.586 17.7472C195.97 20.5856 194.758 22.828 192.737 24.8583C190.717 26.8684 188.495 28.0704 185.626 28.7068L184.596 28.9391H106.414H28.2324L28.2122 15.0199L28.1819 1.11083L106.596 1.14114C181.232 1.16134 185.03 1.17144 185.727 1.34315ZM11.3738 15.9896C12.1516 16.3533 12.9294 17.131 13.3031 17.929L13.5859 18.5351L13.6162 23.7068C13.6364 28.424 13.6263 28.8886 13.4748 28.8886C13.0809 28.8886 11.2425 28.4543 10.4344 28.1714C7.2728 27.0502 4.52532 24.7371 2.84856 21.7674C2.00007 20.2623 1.34351 18.1512 1.16169 16.3836L1.09098 15.6462L5.91926 15.6765L10.7576 15.7068L11.3738 15.9896ZM27.2526 22.2927L27.2223 28.9391L21.0809 28.9694L14.9395 28.9896L14.9698 23.7674L15.0001 18.5351L15.2728 17.9593C15.7475 16.9492 16.6667 16.131 17.7071 15.8078C18.0304 15.6967 19.2223 15.6664 22.7071 15.6664L27.2728 15.6563L27.2526 22.2927Z" fill="white"/>
<path d="M43.2833 11.8884C42.1116 12.151 41.4046 12.6156 41.051 13.3631C40.849 13.8177 40.8086 14.0399 40.8086 14.949C40.8086 16.2621 40.9197 16.6762 41.4248 17.2217C42.2227 18.0904 43.3439 18.3328 46.1116 18.252C48.0914 18.2015 48.6066 18.1005 49.4046 17.5853C50.051 17.1813 50.4046 16.454 50.4753 15.3833C50.6066 13.4338 49.8894 12.353 48.1924 11.949C47.6571 11.8278 43.7884 11.7772 43.2833 11.8884ZM47.6773 13.5449C48.3035 13.8783 48.5056 14.3025 48.4652 15.1712C48.4349 15.7873 48.3945 15.8884 48.0914 16.2015C47.6167 16.6863 47.0611 16.7974 45.3035 16.757C43.7581 16.7166 43.4248 16.6055 43.0005 16.0399C42.6975 15.6358 42.6571 14.7873 42.9096 14.2116C43.253 13.4237 43.8793 13.2318 45.8591 13.2722C47.0914 13.2924 47.2732 13.3227 47.6773 13.5449Z" fill="white"/>
<path d="M51.2119 15.0499V18.2822H52.1715H53.1311V17.0196V15.757L55.2321 15.7671H57.323L58.3735 17.0297L59.424 18.2822H60.6261C61.6968 18.2822 62.0099 18.2115 61.7271 18.0398C61.6867 18.0095 61.2018 17.464 60.6564 16.8176L59.6766 15.656L60.0099 15.3832C60.4442 15.0095 60.6059 14.5853 60.6059 13.757C60.6059 12.8984 60.323 12.2721 59.7978 11.9994C59.4745 11.8277 59.121 11.8176 55.3331 11.8176H51.2119V15.0499ZM58.9089 13.3529C59.121 13.5348 59.1816 13.7469 59.0806 14.0095L58.9998 14.2418H56.0604H53.1311V13.8075C53.1311 13.5651 53.1614 13.3327 53.2018 13.3024C53.2321 13.262 54.4947 13.2317 56.0099 13.2317C58.0503 13.2317 58.7877 13.262 58.9089 13.3529Z" fill="white"/>
<path d="M62.2227 15.0505V18.293L66.7479 18.2627C71.0711 18.2324 71.2833 18.2223 71.6166 18.0303C71.8186 17.9091 72.0711 17.6364 72.2025 17.3738C72.4045 16.9899 72.4348 16.8081 72.3944 16.1415C72.3742 15.6162 72.3035 15.2829 72.1722 15.0808C72.0206 14.8586 71.9903 14.6364 72.0105 13.9394C72.0206 13.2122 71.9903 13.0101 71.7984 12.6364C71.3641 11.798 71.4651 11.8182 66.5459 11.8182H62.2227V15.0505ZM70.3439 13.3637C70.4651 13.4546 70.5156 13.596 70.4853 13.8384L70.455 14.192L67.3035 14.2223L64.1418 14.2425V13.8081C64.1418 13.5657 64.1722 13.3334 64.2126 13.3031C64.2429 13.2627 65.5964 13.2324 67.2227 13.2324C69.4651 13.2324 70.2025 13.2627 70.3439 13.3637ZM70.7176 15.8586C70.9398 15.9798 70.9802 16.4546 70.7883 16.6465C70.6974 16.7374 69.8085 16.7677 67.4045 16.7677H64.1418V16.3334C64.1418 16.0909 64.1722 15.8586 64.2126 15.8283C64.3237 15.7071 70.4954 15.7475 70.7176 15.8586Z" fill="white"/>
<path d="M73.1318 15.0499V18.2822H74.0914H75.051V15.0499V11.8176H74.0914H73.1318V15.0499Z" fill="white"/>
<path d="M75.5557 12.5247V13.2317H77.3738H79.192V15.757V18.2822H80.2021H81.2122L81.2324 15.7772L81.2627 13.2822L83.1112 13.2519L84.9496 13.2317V12.5247V11.8176H80.2526H75.5557V12.5247Z" fill="white"/>
<path d="M87.7677 12.0499C86.4142 12.6257 86.2525 12.8479 84.3839 16.7368L83.6465 18.2822H84.8081H85.9596L86.2121 17.7772L86.4647 17.2721H89.1414H91.8182L92.0707 17.7772L92.3233 18.2822H93.4849C94.1212 18.2822 94.6465 18.262 94.6465 18.2317C94.6465 18.0095 92.1919 13.3125 91.899 12.9792C91.697 12.7469 91.2424 12.4034 90.8889 12.2216C90.3132 11.9085 90.1616 11.8681 89.2929 11.8479C88.4647 11.8176 88.2525 11.8479 87.7677 12.0499ZM89.8889 13.5752C90.0101 13.6863 90.3435 14.2317 90.6162 14.7671L91.1111 15.757H89.1919C88.1414 15.757 87.2727 15.7267 87.2727 15.6762C87.2828 15.6358 87.5152 15.1509 87.8081 14.5954C88.2323 13.7873 88.4041 13.555 88.6869 13.4034C89.1111 13.1913 89.5354 13.2519 89.8889 13.5752Z" fill="white"/>
<path d="M95.0508 15.0499V18.2822H99.4952H103.94V17.5247V16.7671H100.455H96.97V14.2923V11.8176H96.0104H95.0508V15.0499Z" fill="white"/>
<path d="M109.899 15.0499V18.2822H110.859H111.819V17.0196V15.757H113.889H115.96L117.031 17.0196L118.101 18.2822H119.303C119.97 18.2822 120.505 18.262 120.505 18.2317C120.505 18.1913 119.95 17.5247 118.505 15.8378C118.374 15.6762 118.394 15.6358 118.687 15.3832C119.132 15.0095 119.293 14.5853 119.293 13.7671C119.283 12.8479 119.041 12.3024 118.495 12.0297C118.101 11.8277 117.93 11.8176 113.99 11.8176H109.899V15.0499ZM117.617 13.363C117.738 13.4539 117.788 13.5954 117.758 13.8378L117.728 14.1913L114.778 14.2216L111.819 14.2418V13.8075C111.819 13.5651 111.849 13.3327 111.889 13.3024C111.92 13.262 113.182 13.2317 114.697 13.2317C116.778 13.2317 117.475 13.262 117.617 13.363Z" fill="white"/>
<path d="M120.909 15.0499V18.2822H125H129.091V17.5247V16.7671H125.96H122.828V16.262V15.757H125.96H129.091V14.9994V14.2418H125.95H122.818L122.849 13.757L122.879 13.2822L125.99 13.2519L129.091 13.2317V12.5247V11.8176H125H120.909V15.0499Z" fill="white"/>
<path d="M131.97 11.9593C131.273 12.131 130.687 12.4542 130.354 12.8482C129.859 13.434 129.758 13.7977 129.758 14.9997C129.748 16.0199 129.768 16.1613 130.041 16.6967C130.253 17.1411 130.445 17.3633 130.798 17.5856C131.728 18.1815 131.97 18.2118 135.586 18.2623L138.889 18.3027V17.5351V16.7674H136.101C134.424 16.7674 133.152 16.727 132.889 16.6563C132.616 16.5856 132.313 16.4138 132.111 16.2017C131.808 15.8886 131.768 15.7876 131.738 15.1714C131.697 14.2623 131.899 13.8785 132.576 13.5351C133.071 13.2825 133.121 13.2825 135.99 13.2522L138.889 13.2219V12.5149V11.8179L135.687 11.828C133.495 11.828 132.313 11.8785 131.97 11.9593Z" fill="white"/>
<path d="M141.363 11.959C140.303 12.2216 139.757 12.6358 139.374 13.4842C139.192 13.8984 139.151 14.1711 139.151 14.9994C139.151 16.2014 139.283 16.656 139.818 17.2317C140.555 18.0297 141.555 18.2822 143.99 18.2822C145.737 18.2822 146.616 18.161 147.323 17.8378C148.414 17.3327 148.818 16.6055 148.828 15.1509C148.838 14.6257 148.778 13.9792 148.697 13.7267C148.434 12.8075 147.656 12.1812 146.485 11.9287C145.757 11.7772 142.02 11.7974 141.363 11.959ZM146.01 13.5348C146.677 13.8681 146.889 14.2721 146.848 15.1206C146.808 15.8378 146.606 16.1913 146.05 16.5145C145.747 16.6964 145.525 16.7166 143.99 16.7166C142.454 16.7166 142.232 16.6964 141.929 16.5145C141.394 16.2014 141.182 15.8378 141.131 15.1711C141.02 13.6863 141.788 13.2115 144.192 13.262C145.353 13.2822 145.566 13.3125 146.01 13.5348Z" fill="white"/>
<path d="M149.596 15.0499V18.2822H150.555H151.515V17.0196V15.757H153.586H155.656L156.727 17.0196L157.798 18.2822H159C159.666 18.2822 160.202 18.262 160.202 18.2317C160.202 18.1913 159.646 17.5247 158.202 15.8378C158.07 15.6762 158.091 15.6358 158.384 15.3832C158.828 15.0095 158.99 14.5853 158.99 13.7671C158.98 12.8479 158.737 12.3024 158.192 12.0297C157.798 11.8277 157.626 11.8176 153.687 11.8176H149.596V15.0499ZM157.313 13.363C157.434 13.4539 157.485 13.5954 157.454 13.8378L157.424 14.1913L154.474 14.2216L151.515 14.2418V13.8075C151.515 13.5651 151.545 13.3327 151.586 13.3024C151.616 13.262 152.879 13.2317 154.394 13.2317C156.474 13.2317 157.171 13.262 157.313 13.363Z" fill="white"/>
<path d="M160.606 15.0499V18.2822H163.92C165.738 18.2822 167.516 18.2317 167.869 18.1711C169.182 17.959 169.98 17.4034 170.354 16.4337C170.495 16.0701 170.516 15.7368 170.495 14.8176C170.455 13.7469 170.435 13.6358 170.152 13.1711C169.97 12.8883 169.657 12.5651 169.394 12.4034C168.516 11.8681 168.071 11.8176 164.172 11.8176H160.606V15.0499ZM167.697 13.5044C168.324 13.7873 168.526 14.1812 168.536 15.0701C168.536 15.8277 168.364 16.161 167.768 16.5145C167.455 16.6964 167.213 16.7166 164.98 16.7469L162.526 16.7772V15.0701C162.526 14.1307 162.556 13.3327 162.596 13.2923C162.647 13.2519 163.697 13.2317 164.95 13.2519C167.021 13.2822 167.263 13.3024 167.697 13.5044Z" fill="white"/>
<path d="M171.788 12.0303C171.212 12.3334 170.98 12.9192 171.03 13.9495C171.06 14.7879 171.202 15.0808 171.757 15.495C172.02 15.697 172.202 15.7071 175.161 15.7576C177.798 15.798 178.303 15.8283 178.384 15.9596C178.515 16.1617 178.505 16.3334 178.384 16.5758C178.283 16.7576 178.131 16.7677 174.848 16.7677H171.414V17.5253V18.293L175.384 18.2627C179.131 18.2324 179.363 18.2223 179.677 18.0303C180.202 17.7172 180.434 17.1718 180.434 16.2627C180.434 15.4748 180.293 15.0505 179.939 14.7374C179.444 14.3132 179.333 14.293 176.161 14.2425L173.081 14.192L173.05 13.8384C172.99 13.2324 173 13.2324 176.737 13.2324H180.101V12.5253V11.8182H176.141C172.353 11.8283 172.151 11.8384 171.788 12.0303Z" fill="white"/>
</g>
<defs>
<clipPath id="clip0_161_741">
<rect width="197.879" height="30" fill="white"/>
</clipPath>
</defs>
</svg>
