<svg width="30" height="30" viewBox="0 0 30 30" fill="none" xmlns="http://www.w3.org/2000/svg">
<g clip-path="url(#clip0_166_1732)">
<path d="M18.335 30C13.5138 30 9.66629 26.2012 9.66629 21.2825C9.65935 19.1045 10.4673 17.0026 11.9313 15.39L6.03879 21.2825L2.94629 18.19L9.59504 11.615C10.495 10.715 10.9575 9.545 10.9575 8.255V0H15.3163V8.255C15.3163 10.7875 14.4163 12.93 12.6625 14.6838L12.4675 14.8787C14.0715 13.4169 16.1648 12.6088 18.335 12.6137C23.2788 12.6137 27.0538 16.5337 27.0538 21.2825C27.0589 22.4288 26.8369 23.5648 26.4005 24.6249C25.9642 25.6849 25.3221 26.6481 24.5115 27.4586C23.7008 28.2691 22.7376 28.911 21.6775 29.3472C20.6174 29.7834 19.4814 30.0053 18.335 30ZM18.335 16.6075C15.6813 16.6075 13.6113 18.7987 13.6113 21.2825C13.6113 23.8387 15.705 26.0075 18.3363 26.0075C19.5952 26.0122 20.8047 25.5174 21.6993 24.6316C22.594 23.7458 23.1009 22.5414 23.1088 21.2825C23.1088 18.7012 20.965 16.6075 18.335 16.6075Z" fill="white"/>
</g>
<defs>
<clipPath id="clip0_166_1732">
<rect width="30" height="30" fill="white"/>
</clipPath>
</defs>
</svg>
